<svg width="14" height="13" viewBox="0 0 14 13" fill="none" xmlns="http://www.w3.org/2000/svg">
<g id="fi-rs-shopping-bag">
<g id="01 align center">
<path id="Vector" d="M9.6417 3.9935V4.0508H9.699H12.2204V10.4402C12.2204 10.7669 12.0906 11.0803 11.8595 11.3114C11.6285 11.5424 11.3151 11.6722 10.9883 11.6722H3.25232C2.92556 11.6722 2.61219 11.5424 2.38114 11.3114C2.15009 11.0803 2.02029 10.7669 2.02029 10.4402V4.0508H4.54166H4.59896V3.9935C4.59896 3.32479 4.8646 2.68347 5.33745 2.21062C5.8103 1.73777 6.45162 1.47213 7.12033 1.47213C7.78904 1.47213 8.43036 1.73777 8.90321 2.21062C9.37606 2.68347 9.6417 3.32479 9.6417 3.9935ZM8.83945 4.0508H8.89675V3.9935C8.89675 3.52236 8.70959 3.07052 8.37645 2.73738C8.0433 2.40424 7.59146 2.21708 7.12033 2.21708C6.64919 2.21708 6.19735 2.40424 5.86421 2.73738C5.53107 3.07052 5.34391 3.52236 5.34391 3.9935V4.0508H5.40121H8.83945ZM2.82254 4.79575H2.76524V4.85306V10.4402C2.76524 10.5694 2.81655 10.6933 2.9079 10.7846C2.99925 10.8759 3.12314 10.9273 3.25232 10.9273H10.9883C11.1175 10.9273 11.2414 10.8759 11.3328 10.7846C11.4241 10.6933 11.4754 10.5694 11.4754 10.4402V4.85306V4.79575H11.4181H9.699H9.6417V4.85306V5.65531H8.89675V4.85306V4.79575H8.83945H5.40121H5.34391V4.85306V5.65531H4.59896V4.85306V4.79575H4.54166H2.82254Z" fill="#BEAFC3" stroke="#160524" stroke-width="0.114608"/>
</g>
</g>
</svg>
