<svg width="14" height="15" viewBox="0 0 14 15" fill="none" xmlns="http://www.w3.org/2000/svg">
<g id="ic:round-discord" clip-path="url(#clip0_5_4751)">
<path id="Vector" d="M11.1116 3.4839C10.3495 3.12862 9.52431 2.87075 8.66475 2.72176C8.65721 2.72152 8.64971 2.72293 8.64278 2.7259C8.63585 2.72887 8.62966 2.73333 8.62464 2.73895C8.52149 2.92805 8.40115 3.17446 8.32092 3.36356C7.40922 3.22603 6.48204 3.22603 5.57034 3.36356C5.49011 3.16873 5.36978 2.92805 5.2609 2.73895C5.25517 2.72749 5.23798 2.72176 5.22079 2.72176C4.36123 2.87075 3.54178 3.12862 2.77391 3.4839C2.76818 3.4839 2.76245 3.48963 2.75672 3.49536C1.19806 5.82763 0.768276 8.09686 0.9803 10.3432C0.9803 10.3546 0.986031 10.3661 0.997492 10.3718C2.02896 11.1282 3.02032 11.5867 4.00021 11.8904C4.01741 11.8961 4.0346 11.8904 4.04033 11.8789C4.26954 11.5637 4.47584 11.2314 4.65348 10.8818C4.66494 10.8589 4.65348 10.836 4.63056 10.8303C4.30392 10.7042 3.99448 10.5552 3.69077 10.3833C3.66785 10.3718 3.66785 10.3374 3.68504 10.3203C3.74808 10.2744 3.81111 10.2228 3.87415 10.177C3.88561 10.1655 3.9028 10.1655 3.91426 10.1713C5.88551 11.0709 8.01148 11.0709 9.95982 10.1713C9.97128 10.1655 9.98847 10.1655 9.99993 10.177C10.063 10.2286 10.126 10.2744 10.189 10.326C10.212 10.3432 10.212 10.3776 10.1833 10.389C9.88532 10.5667 9.57015 10.7099 9.24352 10.836C9.2206 10.8417 9.21486 10.8704 9.2206 10.8876C9.40397 11.2371 9.61026 11.5695 9.83375 11.8846C9.85094 11.8904 9.86813 11.8961 9.88532 11.8904C10.8709 11.5867 11.8623 11.1282 12.8938 10.3718C12.9052 10.3661 12.911 10.3546 12.911 10.3432C13.1631 7.74731 12.4926 5.49527 11.1345 3.49536C11.1288 3.48963 11.1231 3.4839 11.1116 3.4839ZM4.95146 8.97361C4.36123 8.97361 3.86842 8.42922 3.86842 7.75877C3.86842 7.08831 4.34977 6.54393 4.95146 6.54393C5.55888 6.54393 6.04023 7.09404 6.0345 7.75877C6.0345 8.42922 5.55315 8.97361 4.95146 8.97361ZM8.94554 8.97361C8.35531 8.97361 7.86249 8.42922 7.86249 7.75877C7.86249 7.08831 8.34385 6.54393 8.94554 6.54393C9.55296 6.54393 10.0343 7.09404 10.0286 7.75877C10.0286 8.42922 9.55296 8.97361 8.94554 8.97361Z" fill="white"/>
</g>
<defs>
<clipPath id="clip0_5_4751">
<rect width="13.7529" height="13.7529" fill="white" transform="translate(0.0691528 0.429657)"/>
</clipPath>
</defs>
</svg>
