<svg width="12" height="13" viewBox="0 0 12 13" fill="none" xmlns="http://www.w3.org/2000/svg">
<g id="instagram">
<path id="Combo Shape" fill-rule="evenodd" clip-rule="evenodd" d="M2.99028 0.575733C1.40788 0.575733 0.125092 1.85852 0.125092 3.44092V9.17131C0.125092 10.7537 1.40788 12.0365 2.99028 12.0365H8.72067C10.3031 12.0365 11.5859 10.7537 11.5859 9.17131V3.44093C11.5859 1.85852 10.3031 0.575733 8.72067 0.575733H2.99028ZM9.2937 3.44092C9.61018 3.44092 9.86674 3.18437 9.86674 2.86788C9.86674 2.5514 9.61018 2.29485 9.2937 2.29485C8.97722 2.29485 8.72066 2.5514 8.72066 2.86788C8.72066 3.18437 8.97722 3.44092 9.2937 3.44092ZM8.72066 6.30612C8.72066 7.88852 7.43787 9.17131 5.85547 9.17131C4.27306 9.17131 2.99027 7.88852 2.99027 6.30612C2.99027 4.72371 4.27306 3.44092 5.85547 3.44092C7.43787 3.44092 8.72066 4.72371 8.72066 6.30612ZM5.85547 8.02523C6.80491 8.02523 7.57458 7.25556 7.57458 6.30612C7.57458 5.35667 6.80491 4.587 5.85547 4.587C4.90603 4.587 4.13635 5.35667 4.13635 6.30612C4.13635 7.25556 4.90603 8.02523 5.85547 8.02523Z" fill="white"/>
</g>
</svg>
