<svg width="11" height="10" viewBox="0 0 11 10" fill="none" xmlns="http://www.w3.org/2000/svg">
<g id="twitter">
<path id="Vector" d="M7.64831 0.721809C6.44273 0.721809 5.4654 1.74804 5.4654 3.01396C5.4654 3.20526 5.48772 3.39108 5.52977 3.56871C4.37056 3.56871 2.62453 3.33434 1.16631 1.87339C0.972408 1.67912 0.614849 1.80901 0.628299 2.08316C0.844406 6.4881 2.7309 7.773 3.70239 7.85296C3.07506 8.47254 2.16378 8.96161 1.2468 9.18111C1.00479 9.23904 0.945006 9.50398 1.18165 9.58094C1.8378 9.79435 2.77697 9.87656 3.2825 9.89043C6.85873 9.89043 9.76544 6.88033 9.83012 3.14135C10.2997 2.836 10.6004 2.17303 10.7694 1.70337C10.8105 1.58899 10.6231 1.45572 10.5109 1.50244C10.1601 1.64846 9.71483 1.68307 9.33553 1.55948C8.93518 1.04802 8.32803 0.721809 7.64831 0.721809Z" fill="white"/>
</g>
</svg>
