<svg width="1102" height="392" viewBox="0 0 1102 392" fill="none" xmlns="http://www.w3.org/2000/svg">
<g clip-path="url(#clip0_5_4439)">
<path d="M1231.7 226.87C1128.42 226.87 1184.2 238.106 1024.36 230.254C971.787 227.992 947.05 236.658 868.856 197.106C819.711 171.535 790.442 150.822 745.743 134.125C635.248 96.3649 631.71 159.88 415.285 204.715C357.396 216.477 321.187 221.952 272.736 238.424C215.577 258.852 178.608 280.547 110.747 271.409C45.8615 260.719 1.72343 230.776 -64.2003 216.836C-141.407 202.575 -210.546 226.87 -323.381 226.87" stroke="#3DDEED" stroke-opacity="0.05" stroke-width="0.286519" stroke-linecap="round" stroke-linejoin="round"/>
<path d="M1231.7 226.87C1148.92 227.057 1159.03 237.67 1063.24 234.616C964.968 230.927 948.895 237.468 881.814 205.341C834.921 181.993 803.887 159.568 758.702 140.031C642.791 93.0765 639.89 153.701 415.288 205.701C356.168 219.097 319.852 225.941 272.739 242.012C214.462 262.772 177.979 283.25 110.75 273.555C45.7102 262.238 1.80943 232.108 -64.1974 217.91C-140.912 203.469 -208.858 226.846 -323.378 226.873" stroke="#3DDEED" stroke-opacity="0.05" stroke-width="0.286519" stroke-linecap="round" stroke-linejoin="round"/>
<path d="M1231.7 226.87C1149.87 227.099 1159.75 238.667 1063.24 236.922C965.279 234.539 949.316 238.822 888.286 210.316C840.797 187.054 811.16 164.976 765.186 143.738C648.836 93.0409 647.172 147.715 408.807 208.321C342.607 224.745 306.958 232.978 259.78 250.275C196.541 273.997 159.337 287.812 91.3134 271.596C26.3269 254.471 -17.3336 224.772 -83.634 215.8C-152.681 208.476 -219.539 226.876 -323.378 226.87" stroke="#3DDEED" stroke-opacity="0.05" stroke-width="0.286519" stroke-linecap="round" stroke-linejoin="round"/>
<path d="M1231.7 226.87C1152.76 227.078 1164.58 238.02 1076.2 239.225C1046.91 239.353 1034.42 238.43 1004.93 237.952C963.621 237.584 942.85 237.115 894.77 215.287C847.96 192.921 818.326 170.451 771.658 147.652C684.96 107.275 649.07 127.688 577.274 154.621C455.704 199.587 423.1 204.668 331.052 230.907C205.629 267.183 174.289 303.957 58.9121 263.393C-8.42348 238.745 -45.2175 215.937 -116.035 214.889C-188.704 215.058 -223.416 226.882 -323.381 226.87" stroke="#3DDEED" stroke-opacity="0.05" stroke-width="0.286519" stroke-linecap="round" stroke-linejoin="round"/>
<path d="M1231.7 226.87C1135.59 227.223 1195.71 242.416 998.443 240.68C894.337 240.045 849.164 182.685 758.702 142.672C661.661 102.508 641.904 137.455 441.205 200.682C287.984 248.126 388.928 213.595 227.382 268.94C78.4585 317.805 24.6897 223.781 -103.074 216.13C-170.768 213.539 -220.343 226.885 -323.378 226.87" stroke="#3DDEED" stroke-opacity="0.05" stroke-width="0.286519" stroke-linecap="round" stroke-linejoin="round"/>
<path d="M1231.7 226.87C1138.29 227.295 1182.47 246.096 985.484 243.318C894.159 239.932 837.362 176.331 752.215 140.841C673.033 110.219 636.488 132.469 531.917 169.665C394.632 218.094 378.064 220.813 285.695 251.913C232.291 270.171 209.82 280.838 169.063 285.328C81.5521 292.107 26.668 245.229 -57.7195 223.686C-134.977 205.956 -190.905 226.897 -323.381 226.873" stroke="#3DDEED" stroke-opacity="0.05" stroke-width="0.286519" stroke-linecap="round" stroke-linejoin="round"/>
<path d="M1231.7 226.87C1141.92 227.384 1167.05 249.316 985.484 245.9C897.327 242.164 841.259 181.272 758.699 144.052C695.329 117.342 660.154 124.657 603.185 143.658C107.425 311.062 204.81 321.625 -18.8433 236.836C-121.41 199.51 -164.151 226.959 -323.381 226.873" stroke="#3DDEED" stroke-opacity="0.05" stroke-width="0.286519" stroke-linecap="round" stroke-linejoin="round"/>
<path d="M1231.7 226.87C1164.71 227.342 1161.16 241.267 1076.2 247.532C969.551 254.082 942.39 244.389 907.729 229.004C807.538 181.59 746.069 102.882 629.114 134.92C520.737 166.92 376.112 230.613 233.86 277.324C111.916 315.808 65.918 265.708 -38.2799 231.111C-125.761 203.947 -165.162 227.022 -323.378 226.873" stroke="#3DDEED" stroke-opacity="0.05" stroke-width="0.286519" stroke-linecap="round" stroke-linejoin="round"/>
<path d="M1231.7 226.87C1165.79 227.413 1156.31 243.529 1069.71 250.055C918.309 259.573 919.335 236.032 791.1 161.69C692.117 106.284 650.865 117.757 454.164 196.856C213.328 295.19 175.588 308.454 91.3105 283.378C25.6952 262.315 -17.2238 231.652 -83.637 221.32C-149.252 213.013 -200.005 227.034 -323.381 226.87" stroke="#3DDEED" stroke-opacity="0.05" stroke-width="0.286519" stroke-linecap="round" stroke-linejoin="round"/>
<path d="M1231.7 226.87C1167.13 227.488 1155.34 244.556 1069.71 252.177C919.561 263.58 916.111 235.783 791.1 162.394C702.388 112.112 656.186 113.308 480.082 185.988C330.26 248.625 220.803 307.183 130.187 294.712C24.0579 276.76 -7.78874 215.468 -148.434 219.842C-218.602 222.602 -229.102 227.034 -323.381 226.873" stroke="#3DDEED" stroke-opacity="0.05" stroke-width="0.286519" stroke-linecap="round" stroke-linejoin="round"/>
<path d="M1231.7 226.87C1168.2 227.562 1154.89 245.538 1069.71 254.29C920.848 267.518 911.686 234.78 791.1 163.064C706.22 114.371 654.261 110.673 480.082 185.498C363.658 236.109 242.627 304.201 149.626 299.399C45.8081 290.578 -4.14049 220.869 -128.994 220.118C-196.772 220.584 -211.477 227.102 -323.381 226.867" stroke="#3DDEED" stroke-opacity="0.05" stroke-width="0.286519" stroke-linecap="round" stroke-linejoin="round"/>
<path d="M1231.7 226.87C1161.6 227.755 1134.27 257.472 1017.89 259.012C913.281 259.549 891.297 223.813 791.1 163.225C713.478 117.953 671.236 118.645 583.757 144.791C442.656 188.398 356.349 260.603 220.901 295.543C80.0009 328.866 22.5689 228.888 -109.554 221.056C-170.018 218.652 -203.763 227.206 -323.378 226.867" stroke="#3DDEED" stroke-opacity="0.05" stroke-width="0.286519" stroke-linecap="round" stroke-linejoin="round"/>
<path d="M1231.7 226.87C1167.81 227.799 1156.68 247.117 1069.71 258.172C918.063 275.101 907.418 232.346 784.616 159.539C730.486 128.652 691.562 119.033 629.115 131.489C439.307 172.731 310.378 308.08 162.585 305.717C57.5033 300.506 0.234461 226.087 -116.035 221.308C-174.126 219.92 -204.899 227.244 -323.381 226.873" stroke="#3DDEED" stroke-opacity="0.05" stroke-width="0.286519" stroke-linecap="round" stroke-linejoin="round"/>
<path d="M1231.7 226.87C1170.96 227.862 1152.98 248.527 1069.71 260.11C919.744 278.57 905.709 232.58 784.616 159.634C730.667 128.349 692.004 118.651 629.115 130.287C439.218 168.763 324.393 308.551 169.063 308.848C65.5947 305.569 4.14077 231.619 -103.077 222.493C-162.063 218.807 -189.3 227.271 -323.381 226.87" stroke="#3DDEED" stroke-opacity="0.05" stroke-width="0.286519" stroke-linecap="round" stroke-linejoin="round"/>
<path d="M1231.7 226.87C1168.02 228.031 1151.6 251.046 1063.24 262.921C913.542 280.458 899.35 227.307 778.145 155.918C718.657 122.506 680.602 119.413 622.631 130.308C437.483 168.027 334.833 308.836 175.544 311.967C68.8811 310.528 6.82209 232.58 -103.077 223.018C-160.247 219.362 -184.863 227.345 -323.381 226.873" stroke="#3DDEED" stroke-opacity="0.05" stroke-width="0.286519" stroke-linecap="round" stroke-linejoin="round"/>
<path d="M1231.7 226.87C1170.77 228.096 1148.94 252.429 1063.24 264.915C978.072 275.778 944.496 262.565 907.729 242.716C805.684 184.353 757.604 107.714 629.114 127.812C506.779 149.03 432.123 214.622 337.532 267.233C177.009 353.995 108.125 305.521 7.07716 256.863C-102.368 205.208 -113.787 227.485 -323.378 226.87" stroke="#3DDEED" stroke-opacity="0.05" stroke-width="0.286519" stroke-linecap="round" stroke-linejoin="round"/>
<path d="M1231.7 226.87C1172.07 228.227 1147.52 253.578 1063.24 266.66C978.369 278.22 944.283 264.158 907.729 243.929C805.171 183.857 758.663 107.025 629.114 125.578C506.708 145.228 432.868 215.471 337.532 270.943C180.04 359.788 104.649 305.272 7.07716 257.457C-101.092 205.564 -113.834 227.577 -323.378 226.87" stroke="#3DDEED" stroke-opacity="0.05" stroke-width="0.286519" stroke-linecap="round" stroke-linejoin="round"/>
<path d="M1231.7 226.87C1172.61 228.372 1146.83 254.632 1063.24 268.408C979.775 280.499 944.92 266.23 907.729 245.146C805.598 183.899 759.494 106.396 629.114 123.343C506.794 141.402 433.277 216.471 337.532 274.656C179.738 367.374 98.6515 302.717 0.596319 254.896C-100.306 207.024 -112.98 227.689 -323.378 226.87" stroke="#3DDEED" stroke-opacity="0.05" stroke-width="0.286519" stroke-linecap="round" stroke-linejoin="round"/>
<path d="M1231.7 226.87C1172.95 228.517 1146.46 255.655 1063.24 270.153C979.798 282.986 944.538 267.723 907.729 246.36C803.3 182.278 760.404 105.776 629.114 121.108C440.037 146.611 361.403 328.175 182.025 324.937C116.825 321.56 73.9916 292.57 7.07716 258.65C-97.7732 206.701 -108.469 227.802 -323.378 226.87" stroke="#3DDEED" stroke-opacity="0.05" stroke-width="0.286519" stroke-linecap="round" stroke-linejoin="round"/>
<path d="M1231.7 226.87C1170.04 228.764 1143.55 258.855 1056.76 272.952C978.556 284.013 943.876 270.266 901.254 243.511C797.783 175.612 756.347 103.372 622.628 119.663C437.952 145.839 357.9 340.637 175.541 327.768C110.453 320.951 67.6591 289.735 0.59335 255.985C-97.7732 207.903 -108.439 227.912 -323.378 226.87" stroke="#3DDEED" stroke-opacity="0.05" stroke-width="0.286519" stroke-linecap="round" stroke-linejoin="round"/>
<path d="M1231.7 226.87C1170.39 228.924 1143.25 259.926 1056.76 274.724C980.151 286.156 945.119 272.747 901.254 244.597C797.433 174.963 757.109 102.544 622.628 117.253C501.968 132.956 425.307 228.004 331.049 290.068C186.417 381.202 93.6418 304.037 0.59335 256.487C-96.8686 208.149 -108.264 228.022 -323.378 226.87" stroke="#3DDEED" stroke-opacity="0.05" stroke-width="0.286519" stroke-linecap="round" stroke-linejoin="round"/>
<path d="M1231.7 226.87C1170.68 229.12 1142.61 260.926 1056.76 276.205C980.498 288.076 945.125 274.139 901.254 245.336C797.753 174.322 757.314 100.615 622.628 114.021C438.515 136.467 370.263 348.908 182.022 334.574C114.022 327.032 69.4031 292.297 0.59335 256.641C-95.5546 208.345 -106.06 228.161 -323.378 226.87" stroke="#3DDEED" stroke-opacity="0.05" stroke-width="0.286519" stroke-linecap="round" stroke-linejoin="round"/>
<path d="M1231.7 226.87C1171.42 229.304 1141.74 261.953 1056.76 277.689C981.415 289.896 945.834 276.012 901.254 246.078C798.035 173.669 757.569 98.6858 622.628 110.792C438.699 131.673 372.855 356.277 182.022 337.657C116.967 329.047 73.7691 296.176 7.0742 260.196C-93.8729 207.173 -104.744 228.316 -323.378 226.87" stroke="#3DDEED" stroke-opacity="0.05" stroke-width="0.286519" stroke-linecap="round" stroke-linejoin="round"/>
<path d="M1231.7 226.87C1171.5 229.515 1141.46 262.891 1056.76 279.173C981.456 291.857 945.469 277.166 901.254 246.817C797.854 172.689 757.859 96.7567 622.628 107.563C505.367 119.894 424.233 234.575 331.049 302.206C193.696 396.916 85.1025 301.93 0.59335 256.946C-94.7834 207.817 -104.758 228.458 -323.378 226.87" stroke="#3DDEED" stroke-opacity="0.05" stroke-width="0.286519" stroke-linecap="round" stroke-linejoin="round"/>
<path d="M1231.7 226.87C1175.12 229.547 1143.55 261.383 1063.24 279.363C983.921 295.166 946.819 278.081 907.729 252.097C805.859 180.652 763.738 97.4512 629.114 103.877C510.098 112.234 433.707 226.051 337.532 301.402C201.96 402.846 96.593 308.869 0.596319 257.098C-93.4754 208.048 -102.492 228.298 -323.378 226.87" stroke="#3DDEED" stroke-opacity="0.05" stroke-width="0.286519" stroke-linecap="round" stroke-linejoin="round"/>
<path d="M1231.7 226.87C1173.91 229.808 1133.03 268.284 1050.28 283.268C977.212 294.591 941.791 278.57 894.77 243.407C793.446 164.661 750.812 89.5923 616.156 101.618C501.393 115.65 417.67 247.162 324.571 315.015C193.788 404.526 82.9195 300.627 -5.88453 253.792C-94.3534 208.983 -102.727 228.425 -323.378 226.87" stroke="#3DDEED" stroke-opacity="0.05" stroke-width="0.286519" stroke-linecap="round" stroke-linejoin="round"/>
<path d="M1231.7 226.87C1174.34 230.022 1137.71 266.09 1056.76 283.25C983.233 296.965 946.074 281.47 901.254 248.666C797.545 169.451 757.637 89.7377 622.628 97.3176C507.586 107.269 425.728 239.777 331.049 314.327C201.716 410.512 88.2969 305.334 0.59335 257.053C-92.6983 207.523 -102.819 228.586 -323.378 226.87" stroke="#3DDEED" stroke-opacity="0.05" stroke-width="0.286519" stroke-linecap="round" stroke-linejoin="round"/>
<path d="M1231.7 226.87C1174.78 230.221 1137.1 266.892 1056.76 284.408C981.189 298.915 944.131 281.123 901.254 249.082C800.256 170.309 754.247 82.5823 616.156 94.1421C506.563 107.56 424.133 243.472 331.052 318.363C202.117 416.181 88.3503 303.815 -5.88156 253.441C-94.2436 208.182 -103.065 228.746 -323.378 226.87" stroke="#3DDEED" stroke-opacity="0.05" stroke-width="0.286519" stroke-linecap="round" stroke-linejoin="round"/>
<path d="M1231.7 226.87C1174.41 230.479 1137.25 267.554 1056.76 285.563C982.687 300.185 945.466 283.215 901.254 249.494C800.592 169.359 753.58 79.2435 616.156 90.4055C504.985 103.998 418.085 255.083 324.571 327.412C201.47 416.181 87.069 303.287 -5.88453 253.266C-93.9233 207.912 -101.863 228.918 -323.378 226.87" stroke="#3DDEED" stroke-opacity="0.05" stroke-width="0.286519" stroke-linecap="round" stroke-linejoin="round"/>
<path d="M1231.7 226.87C1175.95 230.604 1135.35 268.664 1056.76 286.717C980.905 302.09 943.692 282.927 901.254 249.904C801.541 168.917 753.031 75.9283 616.156 86.6631C506.224 100.104 417.996 257.893 324.571 331.537C203.152 420.555 86.891 303.349 -5.88453 253.085C-94.0449 207.428 -102.587 229.072 -323.378 226.87" stroke="#3DDEED" stroke-opacity="0.05" stroke-width="0.286519" stroke-linecap="round" stroke-linejoin="round"/>
<path d="M1231.7 226.87C1173.93 230.978 1137.1 268.91 1056.76 287.827C981.011 303.592 943.71 283.975 901.254 250.278C803.003 168.908 752.55 72.4886 616.156 82.9651C504.516 96.7449 412.666 270.097 318.093 340.444C197.08 423.054 79.7072 295.018 -18.8433 246.319C-98.4436 209.197 -107.861 229.206 -323.381 226.867" stroke="#3DDEED" stroke-opacity="0.05" stroke-width="0.286519" stroke-linecap="round" stroke-linejoin="round"/>
<path d="M1231.7 226.87C1174.05 231.206 1136.66 269.423 1056.76 288.67C980.964 304.812 943.784 284.838 901.254 250.426C803.688 168.05 751.646 68.4226 616.156 79.4868C508.505 93.6434 418.841 263.33 324.571 339.441C207.251 427.07 91.4054 305.426 -5.88453 252.604C-94.039 206.908 -104.438 229.473 -323.378 226.87" stroke="#3DDEED" stroke-opacity="0.05" stroke-width="0.286519" stroke-linecap="round" stroke-linejoin="round"/>
<path d="M1231.7 226.87C1174.83 231.381 1135.31 270.18 1056.76 289.516C978.47 306.578 941.53 283.785 901.254 250.574C804.486 167.323 750.83 64.3566 616.156 76.0084C509.603 90.8803 419.805 265.865 324.571 343.257C206.987 431.462 90.1418 301.892 -12.3654 248.969C-95.8424 208.11 -106.135 229.707 -323.378 226.87" stroke="#3DDEED" stroke-opacity="0.05" stroke-width="0.286519" stroke-linecap="round" stroke-linejoin="round"/>
<path d="M1231.7 226.87C1173.96 231.687 1129.97 274.024 1050.28 291.801C915.556 317.776 880.705 213.343 765.186 119.158C732.891 94.1302 705.784 78.9051 661.504 73.1861C642.761 71.3193 628.239 70.7435 609.675 73.4858C502.727 96.0949 406.811 291.237 311.615 356.387C196.784 426.711 78.9509 290.362 -25.3182 242.561C-103.103 209.259 -141.191 229.77 -258.581 228.618C-290.609 228.063 -288.61 227.36 -323.378 226.87" stroke="#3DDEED" stroke-opacity="0.05" stroke-width="0.286519" stroke-linecap="round" stroke-linejoin="round"/>
<path d="M1231.7 226.87C1174.9 231.85 1134.44 271.272 1056.76 291.201C983.215 307.967 945.967 289.112 901.254 250.871C805.34 165.264 749.329 56.2575 616.156 69.0519C512.151 85.2445 420.802 271.658 324.571 350.891C212.661 435.531 99.7282 308.611 -5.88453 251.732C-93.2411 206.962 -101.43 230.224 -323.378 226.87" stroke="#3DDEED" stroke-opacity="0.05" stroke-width="0.286519" stroke-linecap="round" stroke-linejoin="round"/>
<path d="M1231.7 226.87C1176.15 231.96 1132.54 272.139 1056.76 291.997C921.174 323.581 886.78 221.73 771.658 119.956C729.329 84.0632 682.984 58.9285 616.156 65.7724C557.526 75.4683 505.907 139.55 460.642 196.209C352.312 333.069 306.668 427.666 162.582 358.18C55.2669 303.361 1.81835 222.398 -122.516 223.62C-166.197 224.683 -195.028 229.164 -252.107 228.894C-285.095 228.482 -286.866 227.467 -323.381 226.873" stroke="#3DDEED" stroke-opacity="0.05" stroke-width="0.286519" stroke-linecap="round" stroke-linejoin="round"/>
<path d="M1231.7 226.87C1174.93 232.281 1133.13 272.145 1056.76 292.546C982.411 310.225 945.534 290.091 901.254 250.901C807.633 164.43 747.659 48.1582 616.156 63.4159C514.716 81.9175 422.383 277.757 324.571 357.717C212.065 441.752 95.8069 299.06 -18.8463 244.879C-97.5301 209.974 -103.554 230.803 -323.384 226.867" stroke="#3DDEED" stroke-opacity="0.05" stroke-width="0.286519" stroke-linecap="round" stroke-linejoin="round"/>
<path d="M1231.7 226.87C1175 232.476 1132.41 272.498 1056.76 293.095C982.99 311.003 946.116 291.181 901.254 250.821C808.796 164.026 746.885 44.107 616.156 61.0623C513.361 81.5435 417.859 292.112 318.093 365.623C210.656 436.525 90.7084 295.555 -18.8433 244.731C-97.1533 210.681 -101.825 231.191 -323.381 226.867" stroke="#3DDEED" stroke-opacity="0.05" stroke-width="0.286519" stroke-linecap="round" stroke-linejoin="round"/>
<path d="M1231.7 226.87C1174.78 232.696 1132.01 272.771 1056.76 293.644C982.747 311.97 946.089 291.73 901.254 250.744C810.914 164.575 746.503 40.0263 616.156 58.7119C515.23 80.5374 417.922 296.161 318.093 368.692C210.493 438.437 89.863 290.928 -25.3212 241.825C-103.462 210.882 -140.244 231.66 -258.584 229.23C-290.407 228.336 -290.582 227.559 -323.381 226.87" stroke="#3DDEED" stroke-opacity="0.05" stroke-width="0.286519" stroke-linecap="round" stroke-linejoin="round"/>
<path d="M1231.7 226.87C1174.55 232.931 1125.12 276.911 1050.28 295.828C915.746 325.513 883.668 211.794 765.186 105.482C733.769 78.7062 706.378 61.2879 661.504 55.6371C642.459 53.889 628.216 53.5477 609.675 57.8719C510.659 89.3578 411.201 312.513 311.615 375.88C208.004 433.097 88.5698 289.299 -25.3182 241.733C-103.587 211.396 -140.069 232.132 -258.581 229.369C-290.823 228.384 -290.725 227.609 -323.378 226.87" stroke="#3DDEED" stroke-opacity="0.05" stroke-width="0.286519" stroke-linecap="round" stroke-linejoin="round"/>
<path d="M1231.7 226.87C1174.92 233.076 1130.49 273.486 1056.76 294.683C984.028 313.419 947.4 294.042 901.254 250.536C814.482 165.186 745.69 32.0368 616.156 54.3936C517.952 79.1129 419.936 302.963 318.093 374.568C213.779 439.413 95.4897 290.928 -25.3212 241.68C-103.332 212.197 -141.677 232.592 -258.584 229.524C-290.461 228.458 -291.113 227.657 -323.381 226.873" stroke="#3DDEED" stroke-opacity="0.05" stroke-width="0.286519" stroke-linecap="round" stroke-linejoin="round"/>
<path d="M1231.7 226.87C1174.65 233.239 1129.94 273.54 1056.76 294.944C983.687 314.122 947.121 294.053 901.254 250.23C817.472 166.742 766.343 67.3186 667.985 52.7702C579.015 43.1425 555.491 82.5674 428.244 256.24C330.82 387.496 295.619 406.292 220.901 382.697C135.781 352.826 71.1175 282.084 -18.8433 244.321C-95.7682 214.159 -99.977 232.803 -323.381 226.87" stroke="#3DDEED" stroke-opacity="0.05" stroke-width="0.286519" stroke-linecap="round" stroke-linejoin="round"/>
<path d="M1231.7 226.87C1174.36 233.405 1129.37 273.602 1056.76 295.205C921.035 331.487 888.737 217.86 771.658 105.758C741.279 77.9465 713.167 57.6404 667.988 51.5148C649.281 49.7311 634.27 49.651 616.159 53.5834C520.619 82.4368 423.139 309.893 318.096 378.165C218.881 434.513 105.515 294.499 -18.8403 244.324C-95.0445 215.652 -96.8093 233.42 -323.378 226.87" stroke="#3DDEED" stroke-opacity="0.05" stroke-width="0.286519" stroke-linecap="round" stroke-linejoin="round"/>
<path d="M1231.7 226.87C1177.11 233.221 1131.98 270.705 1063.24 293.504C926.374 334.879 897.609 230.432 778.145 110.272C735.593 69.3219 690.74 40.4536 622.631 51.6276C526.426 74.6462 433.428 299.684 324.574 375.925C225.916 437.427 115.22 299.547 -12.3624 246.835C-91.156 216.337 -93.1462 234.035 -323.381 226.873" stroke="#3DDEED" stroke-opacity="0.05" stroke-width="0.286519" stroke-linecap="round" stroke-linejoin="round"/>
<path d="M1231.7 226.87C1173.85 233.735 1127.91 273.869 1056.76 295.724C925.22 332.161 896.419 228.238 778.141 108.578C735.756 67.5768 690.675 38.575 622.628 51.0755C529.247 75.5039 440.986 291.575 331.048 373.527C230.11 441.559 123.848 300.69 -12.3655 246.731C-90.4827 217.756 -92.028 234.61 -323.384 226.873" stroke="#3DDEED" stroke-opacity="0.05" stroke-width="0.286519" stroke-linecap="round" stroke-linejoin="round"/>
<path d="M1231.7 226.87C1174.48 233.779 1125.84 274.353 1056.76 295.917C983.817 316.464 947.957 295.882 901.254 248.951C807.247 150.534 749.712 24.9911 622.628 51.0755C530.33 77.4033 442.445 295.659 331.048 375.316C231.264 439.526 127.76 299.511 -12.3655 246.615C-89.0027 219.584 -90.0467 235.257 -323.384 226.87" stroke="#3DDEED" stroke-opacity="0.05" stroke-width="0.286519" stroke-linecap="round" stroke-linejoin="round"/>
<path d="M1231.7 226.87C1174.47 233.812 1124.02 274.602 1056.76 295.882C984.304 316.6 948.471 296.285 901.254 248.396C806.817 148.641 749.75 23.4182 622.628 52.9779C531.445 81.6385 444.159 300.221 331.048 375.91C232.809 434.7 130.952 296.956 -12.3655 246.47C-49.3405 234.32 -76.5185 230.515 -116.038 230.45C-249.79 231.824 -91.5357 235.916 -323.384 226.867" stroke="#3DDEED" stroke-opacity="0.05" stroke-width="0.286519" stroke-linecap="round" stroke-linejoin="round"/>
<path d="M1231.7 226.87C1173.17 234.005 1124.39 274.163 1056.76 295.849C920.26 335.443 888.85 210.912 771.658 98.7541C741.543 71.3727 713.606 51.9095 667.988 49.6955C643.719 49.5649 630.239 52.2686 616.159 57.1033C525.797 96.8072 432.621 328.409 318.096 383.187C226.053 419.837 124.266 287.96 -18.8404 244.351C-56.0438 233.854 -83.0379 231.221 -122.51 231.568C-285.122 234.385 -243.096 230.263 -323.375 226.87" stroke="#3DDEED" stroke-opacity="0.05" stroke-width="0.286519" stroke-linecap="round" stroke-linejoin="round"/>
<path d="M1231.7 226.87C1174.21 233.913 1129.26 270.32 1063.24 293.706C989.575 317.639 953.827 299.256 907.729 253.976C810.492 153.547 753.568 19.1771 622.631 56.7827C531.205 90.8359 442.958 320.212 324.574 380.391C230.283 421.327 134.034 287.269 -18.8433 244.363C-55.9814 234.729 -83.459 232.328 -122.513 232.622C-284.214 235.088 -225.59 231.304 -323.378 226.87" stroke="#3DDEED" stroke-opacity="0.05" stroke-width="0.286519" stroke-linecap="round" stroke-linejoin="round"/>
<path d="M1231.7 226.87C1172.51 234.156 1122.28 274.213 1056.76 295.778C983.568 317.63 947.907 295.353 901.254 246.737C816.869 155.253 766.283 51.2744 667.985 51.2002C643.544 52.2568 630.15 55.6668 616.156 61.285C528.52 105.123 442.006 326.287 324.571 380.691C231.128 417.145 138.762 284.838 -18.8462 244.372C-56.0585 235.569 -84.162 233.435 -122.516 233.67C-275.283 235.688 -234.98 231.147 -323.381 226.867" stroke="#3DDEED" stroke-opacity="0.05" stroke-width="0.286519" stroke-linecap="round" stroke-linejoin="round"/>
<path d="M1231.7 226.87C1171.36 234.308 1122.1 273.905 1056.76 295.668C984.126 317.633 948.563 295.81 901.254 246.117C807.488 143.702 750.42 17.3726 622.628 61.2315C533.204 99.7928 452.049 319.55 331.048 377.797C237.14 416.67 152.631 290.094 -5.8846 247.434C-97.5627 224.529 -110.299 243.487 -303.945 228.034C-310.654 227.571 -311.259 227.499 -323.384 226.87" stroke="#3DDEED" stroke-opacity="0.05" stroke-width="0.286519" stroke-linecap="round" stroke-linejoin="round"/>
<path d="M1231.7 226.87C1170.57 234.322 1121.6 273.557 1056.76 295.336C984.007 317.55 948.589 295.264 901.254 245.298C805.996 140.806 750.815 17.5803 622.628 65.71C535.161 106.23 457.717 315.959 337.53 373.743C240.394 414.332 164.421 289.842 0.593361 248.307C-96.916 225.342 -119.129 245.093 -297.464 228.66C-307.124 227.844 -309.177 227.663 -323.381 226.87" stroke="#3DDEED" stroke-opacity="0.05" stroke-width="0.286519" stroke-linecap="round" stroke-linejoin="round"/>
<path d="M1231.7 226.87C1151.98 236.495 1091.39 298.577 1011.4 303.738C877.653 305.682 820.965 58.3587 680.946 57.498C627.993 60.0088 604.161 77.4954 577.276 106.239C502.321 191.585 438.432 325.166 344.016 370.111C269.141 401.276 231.054 350.131 110.753 287.509C-22.5421 220.136 -105.544 242.161 -219.702 235.765C-267.598 232.723 -283.188 229.271 -323.375 226.873" stroke="#3DDEED" stroke-opacity="0.05" stroke-width="0.286519" stroke-linecap="round" stroke-linejoin="round"/>
<path d="M1231.7 226.87C1170.87 234.144 1126.1 269.15 1063.24 292.46C989.907 317.523 954.625 298.253 907.729 250.56C809.229 145.554 755.519 16.2151 622.631 74.661C534.88 120.933 456.783 337.191 331.052 373.752C235.44 395.569 169.101 274.923 -5.88156 245.47C-40.8811 240.104 -73.9112 238.356 -109.554 237.994C-283.01 237.433 -221.458 233.358 -323.378 226.867" stroke="#3DDEED" stroke-opacity="0.05" stroke-width="0.286519" stroke-linecap="round" stroke-linejoin="round"/>
<path d="M1231.7 226.87C1167.92 234.412 1120.4 272.409 1056.76 294.344C983.684 317.268 948.699 293.659 901.254 242.837C817.231 149.501 767.051 47.891 667.985 64.3448C643.823 69.402 630.265 74.8628 616.156 82.7543C531.549 138.437 455.365 344.151 331.052 372.402C235.227 388.348 174.885 271.691 0.596319 245.686C-101.837 231.889 -118.126 248.114 -297.461 228.986C-307.18 228.034 -309.15 227.832 -323.378 226.867" stroke="#3DDEED" stroke-opacity="0.05" stroke-width="0.286519" stroke-linecap="round" stroke-linejoin="round"/>
<path d="M1231.7 226.87C1166.87 234.432 1120.54 271.809 1056.76 293.935C983.915 316.959 949.052 293.329 901.254 241.944C804.041 133.641 752.722 18.5746 622.628 84.2027C535.692 135.585 463.519 341.898 337.53 369.44C237.721 385.46 183.101 267.732 7.07421 245.366C-29.8029 241.199 -72.2799 240.359 -109.557 240.086C-258.525 239.736 -245.993 232.42 -323.381 226.867" stroke="#3DDEED" stroke-opacity="0.05" stroke-width="0.286519" stroke-linecap="round" stroke-linejoin="round"/>
<path d="M1231.7 226.87C1144.88 236.741 1084.17 301.625 1004.93 302.301C876.49 295.956 817.893 42.638 674.472 71.1382C620.679 84.3956 600.658 103.428 570.802 139.678C494.728 235.527 434.849 352.743 337.532 366.49C261.5 372.927 215.265 308.635 110.75 266.574C28.9934 235.53 -33.1783 242.057 -161.389 240.89C-236.594 239.697 -266.272 231.215 -323.378 226.867" stroke="#3DDEED" stroke-opacity="0.05" stroke-width="0.286519" stroke-linecap="round" stroke-linejoin="round"/>
<path d="M1231.7 226.87C1167.87 233.949 1124.67 267.286 1063.24 290.445C991.167 315.553 956.224 296.686 907.729 246.719C804.676 135.772 758.355 20.0822 622.631 97.4452C562.283 136.835 517.792 235.581 441.205 311.522C328.901 416.955 263.47 338.571 162.585 283.657C54.8783 227.057 0.27893 244.624 -167.87 241.54C-237.327 239.736 -270.223 231.15 -323.378 226.87" stroke="#3DDEED" stroke-opacity="0.05" stroke-width="0.286519" stroke-linecap="round" stroke-linejoin="round"/>
<path d="M1231.7 226.87C1167.01 233.863 1124.61 266.642 1063.24 289.827C991.123 314.992 956.417 295.867 907.729 245.63C799.859 129.415 762.383 27.953 629.115 100.161C539.477 154.188 475.591 348.344 350.491 360.421C242.814 364.813 195.179 245.197 20.0359 240.134C-29.269 239.359 -1.60153 241.882 -141.953 242.561C-230.247 242.446 -261.417 232.129 -323.381 226.867" stroke="#3DDEED" stroke-opacity="0.05" stroke-width="0.286519" stroke-linecap="round" stroke-linejoin="round"/>
<path d="M1231.7 226.87C1166.09 233.771 1124.72 265.945 1063.24 289.207C990.533 314.63 956.008 294.439 907.729 244.538C798.076 126.337 762.7 29.5586 629.115 106.568C565.575 146.949 524.232 243.558 447.683 315.155C338.47 411.12 268.729 325.198 169.063 271.798C64.2155 218.035 18.8287 244.719 -154.915 243.291C-231.564 242.122 -265.131 232.082 -323.381 226.87" stroke="#3DDEED" stroke-opacity="0.05" stroke-width="0.286519" stroke-linecap="round" stroke-linejoin="round"/>
<path d="M1231.7 226.87C1161.61 234.026 1120.99 268.331 1056.76 290.777C984.013 313.929 948.916 287.723 901.254 236.376C794.324 117.564 755.279 29.1847 622.628 117.671C535.47 182.486 471.857 370.312 344.01 355.23C237.686 337.197 191.208 225.348 20.033 235.219C-50.0641 240.062 -27.8749 243.021 -135.475 243.974C-227.239 244.256 -258.122 232.996 -323.381 226.87" stroke="#3DDEED" stroke-opacity="0.05" stroke-width="0.286519" stroke-linecap="round" stroke-linejoin="round"/>
<path d="M1231.7 226.87C1160.93 233.815 1120.79 267.657 1056.76 289.896C983.782 312.971 948.462 285.69 901.254 234.99C819.444 144.486 770.136 55.376 674.469 95.7744C655.738 104.512 638.974 114.116 622.628 125.491C534.642 193.144 472.847 376.854 344.01 350.915C282.209 335.366 236.929 288.723 169.063 254.632C115.309 229.158 75.7238 225.745 13.5551 232.75C-190.798 257.513 -229.897 236.032 -323.381 226.867" stroke="#3DDEED" stroke-opacity="0.05" stroke-width="0.286519" stroke-linecap="round" stroke-linejoin="round"/>
<path d="M1231.7 226.87C1160.11 233.622 1120.9 266.868 1056.76 289.014C983.675 311.964 948.382 284.055 901.254 233.607C819.414 143.465 770.332 56.5424 674.469 101.585C656.236 110.934 638.923 121.506 622.628 133.315C533.755 203.908 473.705 383.564 344.01 346.602C278.718 324.839 228.82 270.477 156.104 239.917C101.437 218.759 61.8367 221.638 0.596319 231.99C-163.54 260.223 -252.314 234.139 -323.378 226.87" stroke="#3DDEED" stroke-opacity="0.05" stroke-width="0.286519" stroke-linecap="round" stroke-linejoin="round"/>
<path d="M1231.7 226.87C1159.2 233.429 1121.13 266.049 1056.76 288.133C983.811 310.878 948.56 282.699 901.254 232.221C819.361 142.414 770.537 57.6938 674.469 107.391C656.459 117.46 638.677 129.041 622.628 141.135C533.204 214.423 474.499 390.369 344.01 342.287C279.653 315.565 228.111 259.689 156.104 231.15C94.9558 209.099 52.3571 218.709 -12.3624 232.352C-150.815 261.096 -263.92 233.207 -323.381 226.873" stroke="#3DDEED" stroke-opacity="0.05" stroke-width="0.286519" stroke-linecap="round" stroke-linejoin="round"/>
<path d="M1231.7 226.87C1138.71 234.916 1085.43 292.81 1011.4 295.546C880.643 292.626 824.928 35.5121 680.946 109.539C558.54 178.669 543.843 271.032 454.164 332.294C338.318 403.356 263.511 244.327 130.19 215.221C48.4507 200.507 -4.52322 239.258 -96.5929 243.769C-225.317 248.72 -240.889 236.005 -323.375 226.87" stroke="#3DDEED" stroke-opacity="0.05" stroke-width="0.286519" stroke-linecap="round" stroke-linejoin="round"/>
<path d="M1231.7 226.87C1161.4 232.663 1125.44 261.306 1063.24 284.09C990.862 308.54 956.444 286.002 907.729 236.192C860.524 186.187 833.972 147.902 791.1 117.386C730.75 78.632 694.368 102.758 635.587 146.51C536.167 223.086 482.535 394.236 356.969 339.761C303.782 313.908 255.103 262.796 188.503 227.179C47.2407 156.473 18.7902 275.647 -245.626 238.243C-281.672 232.922 -291.523 230.518 -323.381 226.867" stroke="#3DDEED" stroke-opacity="0.05" stroke-width="0.286519" stroke-linecap="round" stroke-linejoin="round"/>
<path d="M1231.7 226.87C1160.44 232.429 1126.5 260.158 1063.24 282.977C991.025 306.981 956.604 284.159 907.729 234.426C858.652 182.771 829.452 141.298 784.616 114.199C727.324 83.7041 691.102 109.771 629.115 159.082C533.361 238.537 479.628 404.431 350.491 331.258C299.626 300.072 248.198 245.93 182.025 213.933C42.8539 152.003 19.2024 278.383 -258.584 236.364C-296.135 230.53 -297.102 229.96 -323.381 226.873" stroke="#3DDEED" stroke-opacity="0.05" stroke-width="0.286519" stroke-linecap="round" stroke-linejoin="round"/>
<path d="M1231.7 226.87C1159.96 232.138 1126.46 259.401 1063.24 281.862C991.052 305.465 956.672 282.209 907.729 232.655C857.665 180.284 829.158 140.405 784.616 115.166C730.323 88.4022 695.922 109.8 622.631 172.176C530.614 255.053 477.264 407.942 350.491 325.899C300.724 291.451 245.101 230.77 175.544 201.166C38.7518 148.724 18.802 277.974 -258.584 236.421C-295.577 230.711 -296.034 230.159 -323.381 226.87" stroke="#3DDEED" stroke-opacity="0.05" stroke-width="0.286519" stroke-linecap="round" stroke-linejoin="round"/>
<path d="M1231.7 226.87C1159.3 231.868 1126.89 258.469 1063.24 280.749C990.675 304.07 956.574 280.096 907.729 230.886C859.696 180.961 833.26 144.981 791.1 119.568C731.485 88.0342 695.703 116.172 622.631 179.892C559.821 237.513 517.86 323.738 447.683 347.214C350.263 371.974 294.676 234.367 169.063 188.938C67.4158 156.814 11.1318 232.586 -103.077 241.267C-221.995 249.242 -240.485 237.074 -323.381 226.87" stroke="#3DDEED" stroke-opacity="0.05" stroke-width="0.286519" stroke-linecap="round" stroke-linejoin="round"/>
<path d="M1231.7 226.87C1158.69 231.577 1127.14 257.617 1063.24 279.636C990.601 302.598 956.39 277.902 907.729 229.12C859.999 179.815 833.103 144.091 791.1 120.298C734.54 92.5186 699.01 116.261 616.156 193.66C556.805 252.047 515.144 331.873 447.683 349.68C351.672 367.107 301.705 230.215 175.544 181.406C71.1709 145.91 12.3301 230.506 -103.077 240.43C-220.53 249.358 -239.836 237.406 -323.381 226.876" stroke="#3DDEED" stroke-opacity="0.05" stroke-width="0.286519" stroke-linecap="round" stroke-linejoin="round"/>
<path d="M1231.7 226.87C1158.3 231.257 1126.84 256.938 1063.24 278.422C990.794 300.832 956.681 275.994 907.729 227.191C858.534 176.734 828.775 138.004 784.616 117.965C735.208 99.407 700.469 117.273 609.672 207.38C550.514 269.141 508.443 344.646 441.205 352.105C346.965 354.565 294.498 209.425 169.066 169.472C68.1425 142.346 9.98391 228.307 -103.074 239.222C-219.465 249.263 -238.83 237.67 -323.378 226.867" stroke="#3DDEED" stroke-opacity="0.05" stroke-width="0.286519" stroke-linecap="round" stroke-linejoin="round"/>
<path d="M1231.7 226.87C1157.85 230.915 1127.02 256.053 1063.24 277.03C990.669 298.832 956.595 273.356 907.729 224.977C857.964 174.36 828.579 136.962 784.616 118.612C728.018 99.4753 694.136 132.902 616.159 207.247C556.031 267.04 514.553 343.017 447.686 351.707C350.619 355.996 304.627 206.618 175.547 161.714C72.6449 131.142 11.8554 222.947 -96.5929 236.664C-214.292 249.462 -239.794 237.563 -323.375 226.87" stroke="#3DDEED" stroke-opacity="0.05" stroke-width="0.286519" stroke-linecap="round" stroke-linejoin="round"/>
<path d="M1231.7 226.87C1157.51 230.565 1126.88 255.279 1063.24 275.635C990.939 296.71 956.942 271.151 907.729 222.76C860.646 175.262 832.684 140.859 791.1 121.728C729.904 98.4098 695.551 137.363 616.156 213.548C555.66 273.839 514.268 347.712 447.683 352.03C350.082 349.825 305.371 194.485 175.544 151.893C72.5293 123.494 12.2975 219.569 -96.5957 234.729C-211.513 248.625 -234.758 238.222 -323.378 226.87" stroke="#3DDEED" stroke-opacity="0.05" stroke-width="0.286519" stroke-linecap="round" stroke-linejoin="round"/>
<path d="M1231.7 226.87C1157.7 230.173 1125.17 254.994 1063.24 274.24C990.995 294.65 957.064 268.711 907.729 220.543C860.566 173.366 832.56 139.746 791.1 122.135C728.688 100.624 694.638 144.064 616.156 219.842C555.286 280.633 513.945 352.375 447.683 352.345C349.604 343.596 306.101 182.311 175.544 142.067C71.2361 115.531 13.1072 218.189 -103.077 233.652C-214.265 247.191 -229.9 238.84 -323.381 226.867" stroke="#3DDEED" stroke-opacity="0.05" stroke-width="0.286519" stroke-linecap="round" stroke-linejoin="round"/>
<path d="M1231.7 226.87C1131.65 230.838 1083.36 282.541 1011.4 279.692C919.851 270.373 869.929 146.848 784.616 120.547C723.613 106.785 689.637 148.967 551.359 296.357C467.695 382.475 420.119 366.104 344.013 275.757C296.159 217.711 221.277 110.32 117.231 131.635C34.878 152.514 -7.00286 218.961 -109.552 232.666C-212.287 245.826 -227.304 239.193 -323.375 226.873" stroke="#3DDEED" stroke-opacity="0.05" stroke-width="0.286519" stroke-linecap="round" stroke-linejoin="round"/>
<path d="M1231.7 226.87C1156.52 229.443 1126.28 252.958 1063.24 271.326C991.061 290.332 957.206 263.532 907.729 215.907C864.237 173.158 833.174 137.674 791.1 122.702C725.773 104.82 691.538 158.987 622.631 225.173C557.908 288.21 518.605 355.132 454.164 352.93C353.25 340.227 314.376 167.573 182.025 124.456C77.2839 96.2106 16.266 205.425 -90.1149 227.431C-204.691 247.82 -247.058 236.542 -323.378 226.867" stroke="#3DDEED" stroke-opacity="0.05" stroke-width="0.286519" stroke-linecap="round" stroke-linejoin="round"/>
<path d="M1231.7 226.87C1156.29 229.007 1126.13 252.058 1063.24 269.598C992.241 287.408 958.686 261.808 907.729 213.153C865.83 172.357 833.628 136.268 791.1 122.446C725.001 106.417 690.284 163.91 622.631 228.933C557.742 291.819 518.219 356.726 454.164 351.268C352.152 333.173 315.139 156.446 182.025 115.291C78.2716 89.1382 14.6851 201.394 -90.1149 224.52C-204.955 246.491 -247.207 236.228 -323.378 226.873" stroke="#3DDEED" stroke-opacity="0.05" stroke-width="0.286519" stroke-linecap="round" stroke-linejoin="round"/>
<path d="M1231.7 226.87C1156.03 228.559 1126.1 251.112 1063.24 267.868C991.915 284.85 958.348 258.338 907.729 210.393C866.524 170.668 833.826 134.754 791.1 122.182C724.343 108.079 689.851 168.448 622.631 232.681C559.068 293.982 521.479 353.108 460.645 350.475C357.236 336.396 320.742 154.22 188.505 108.008C83.1568 77.1807 19.8283 191.897 -83.634 220.077C-196.324 246.517 -260.367 234.432 -323.378 226.87" stroke="#3DDEED" stroke-opacity="0.05" stroke-width="0.286519" stroke-linecap="round" stroke-linejoin="round"/>
<path d="M1231.7 226.87C1130.92 228.514 1082.56 276.65 1011.4 270.536C920.607 257.133 869.565 136.03 784.616 120.761C715.213 114.196 688.35 178.067 551.359 308.068C461.179 389.615 411.539 340.1 344.013 246.657C295.477 178.212 224.169 67.1494 117.231 100.291C36.459 129.456 -8.50951 202.712 -103.074 221.374C-205.545 240.392 -224.745 238.294 -323.378 226.87" stroke="#3DDEED" stroke-opacity="0.05" stroke-width="0.286519" stroke-linecap="round" stroke-linejoin="round"/>
<path d="M1231.7 226.87C1155.51 227.654 1125.76 249.313 1063.24 264.411C992.544 279.481 959.214 252.863 907.729 204.881C868.114 167.338 834.167 131.679 791.1 121.666C724.533 111.78 689.213 175.589 629.114 234.014C555.971 303.785 517.226 361.269 454.164 346.261C348.572 311.154 312.629 113.757 175.544 86.482C73.2056 72.3847 13.0123 191.903 -96.5957 217.263C-204.664 240.009 -231.522 237.219 -323.378 226.87" stroke="#3DDEED" stroke-opacity="0.05" stroke-width="0.286519" stroke-linecap="round" stroke-linejoin="round"/>
<path d="M1231.7 226.87C1155.26 227.161 1125.78 248.298 1063.24 262.538C992.422 276.668 959.086 249.364 907.729 201.908C870.852 167.365 835.265 130.109 791.1 121.087C724.218 113.065 688.7 178.859 629.114 236.631C556.22 305.625 516.956 361.412 454.164 343.732C347.881 303.735 312.775 103.09 175.544 78.0028C71.7819 65.4726 13.9911 189.544 -103.077 215.673C-202.535 236.726 -222.591 237.549 -323.378 226.87" stroke="#3DDEED" stroke-opacity="0.05" stroke-width="0.286519" stroke-linecap="round" stroke-linejoin="round"/>
<path d="M1231.7 226.87C1128.98 226.479 1082.87 271.661 1011.4 262.734C923.728 246.431 873.699 134.855 791.103 120.016C745.693 115.683 715.299 145.587 687.433 175.025C554.705 319.604 513.088 353.425 460.648 341.928C342.51 304.853 292.516 31.4165 130.193 73.9992C46.3182 100.778 -2.77314 186.816 -96.5898 210.862C-202.974 235.901 -229.609 235.893 -323.378 226.87" stroke="#3DDEED" stroke-opacity="0.05" stroke-width="0.286519" stroke-linecap="round" stroke-linejoin="round"/>
<path d="M1231.7 226.87C1155.16 226.004 1125.04 246.224 1063.24 258.359C987.006 271.201 955.488 238.851 888.286 177.518C860.079 152.116 826.752 121.479 784.616 118.49C719.289 119.47 686.253 185.73 622.631 244.372C558.042 303.512 519.842 353.203 460.645 338.304C353.478 301.197 320.745 102.01 188.505 65.1461C82.3678 42.0651 17.2003 173.594 -90.1149 205.76C-205.652 236.78 -247.663 233.486 -323.378 226.87" stroke="#3DDEED" stroke-opacity="0.05" stroke-width="0.286519" stroke-linecap="round" stroke-linejoin="round"/>
<path d="M1231.7 226.87C1151.65 225.366 1118.65 247.797 1056.76 257.261C985.493 265.927 955.557 234.836 888.286 174.428C750.596 52.3784 729.48 148.762 609.672 256.86C551.647 310.044 510.024 358.637 447.683 329.157C342.035 269.316 309.862 74.0526 175.544 55.097C72.2505 47.1105 14.255 175.328 -103.077 205.819C-198.999 229.705 -222.562 234.741 -323.378 226.87" stroke="#3DDEED" stroke-opacity="0.05" stroke-width="0.286519" stroke-linecap="round" stroke-linejoin="round"/>
<path d="M1231.7 226.87C1150.68 224.739 1119.65 246.431 1056.76 255.071C983.574 262.832 951.398 227.206 888.286 171.339C750.278 50.9331 728.685 151.982 609.672 257.451C550.241 310.81 506.527 360.317 441.205 321.236C336.856 249.218 303.034 55.4858 169.066 47.0541C105.183 47.1372 61.9583 95.2372 -5.88156 150.211C-62.8715 195.23 -80.1163 196.574 -141.95 212.63C-216.262 231.515 -249.63 232.008 -323.378 226.87" stroke="#3DDEED" stroke-opacity="0.05" stroke-width="0.286519" stroke-linecap="round" stroke-linejoin="round"/>
<path d="M1231.7 226.867C1151.43 224.107 1118.17 245.324 1056.76 252.753C932.846 263.891 882.301 115.505 784.613 115.463C718.586 121.069 685.689 190.173 622.628 245.615C552.937 306.026 511.988 354.461 447.68 320.518C338.725 252.886 306.496 47.3687 169.06 40.3705C105.017 41.2638 61.4867 90.4352 -5.8875 145.839C-62.744 191.437 -79.9324 192.954 -141.956 209.808C-216.434 229.749 -249.861 231.197 -323.378 226.873" stroke="#3DDEED" stroke-opacity="0.05" stroke-width="0.286519" stroke-linecap="round" stroke-linejoin="round"/>
<path d="M1231.7 226.861C1154.48 223.573 1124.25 241.57 1063.24 249.589C986.386 257.555 956.352 223.14 888.286 164.617C859.16 140.022 826.634 113.127 784.616 113.849C718.642 120.565 685.354 189.962 622.631 243.701C554.1 301.461 512.13 349.855 447.683 315.173C339.119 246.782 305.763 40.5426 169.063 34.8473C105.097 36.3193 61.5163 85.8587 -5.88453 141.77C-55.1598 181.631 -74.4807 187.911 -116.038 199.569C-203.172 224.193 -230.573 231.073 -323.378 226.879" stroke="#3DDEED" stroke-opacity="0.05" stroke-width="0.286519" stroke-linecap="round" stroke-linejoin="round"/>
<path d="M1231.7 226.852C1154.01 222.881 1124.5 240.223 1063.24 247.203C990.254 253.495 960.474 223.104 894.773 166.629C865.904 142.174 833.026 113.997 791.103 112.003C723.426 114.365 687.875 185.187 629.117 236.37C511.098 334.82 469.166 380.92 350.494 196.26C307.163 127.48 263.286 38.0793 175.547 29.5319C72.3395 26.1693 15.3436 157.004 -103.074 192.627C-196.205 219.629 -223.223 230.043 -323.378 226.885" stroke="#3DDEED" stroke-opacity="0.05" stroke-width="0.286519" stroke-linecap="round" stroke-linejoin="round"/>
<path d="M1231.7 226.847C1153.85 222.217 1124.28 238.935 1063.24 244.826C990.111 249.865 960.869 219.136 894.773 163.076C865.608 138.737 832.975 111.501 791.103 110.278C723.415 113.822 687.78 184.762 629.117 234.607C509.701 331.529 468.013 373.503 350.494 190.478C305.597 119.164 262.583 31.6539 175.547 23.9523C72.4641 21.5335 15.5038 152.591 -103.074 189.324C-196.155 217.213 -224.154 228.666 -323.378 226.891" stroke="#3DDEED" stroke-opacity="0.05" stroke-width="0.286519" stroke-linecap="round" stroke-linejoin="round"/>
<path d="M1231.7 226.841C1153.76 221.54 1123.74 237.664 1063.24 242.443C937.307 248.924 888.633 109.619 791.1 108.545C721.546 113.409 687.06 187.113 622.631 237.952C554.002 290.881 511.928 335.675 447.683 299.14C337.043 226.324 304.977 20.2277 169.063 18.2749C105.408 21.5069 61.7922 71.9752 -5.88453 129.566C-56.2543 171.395 -74.2464 177.102 -122.516 192.022C-204.495 217.878 -234.877 227.271 -323.378 226.894" stroke="#3DDEED" stroke-opacity="0.05" stroke-width="0.286519" stroke-linecap="round" stroke-linejoin="round"/>
<path d="M1231.7 226.829C1153.39 220.825 1123.63 236.311 1063.24 240.009C987.362 242.591 959.567 208.36 888.286 150.694C750.352 41.8811 723.972 159.69 609.672 244.829C551.828 288.349 509.891 329.089 447.683 293.685C337.918 221.507 307.931 23.6348 175.544 13.9625C72.6687 13.1464 16.1237 144.15 -103.077 182.946C-194.405 211.826 -225.563 225.912 -323.378 226.894" stroke="#3DDEED" stroke-opacity="0.05" stroke-width="0.286519" stroke-linecap="round" stroke-linejoin="round"/>
<path d="M1231.7 226.814C1152.75 220.089 1123.69 234.88 1063.24 237.519C938.306 239.57 889.188 102.942 791.1 104.714C721.662 111.442 687.042 184.106 622.631 231.361C553.423 280.888 514.826 320.251 454.164 291.715C340.166 228.108 307.044 11.615 169.066 10.968C105.479 14.8025 62.0057 65.1995 -5.88156 123.126C-56.2038 165.038 -74.1456 170.911 -122.513 186.398C-204.344 213.043 -235.345 224.674 -323.378 226.882" stroke="#3DDEED" stroke-opacity="0.05" stroke-width="0.286519" stroke-linecap="round" stroke-linejoin="round"/>
<path d="M1231.7 226.799C1152.03 219.323 1123.63 233.465 1063.24 235.026C939.564 234.898 888.968 99.6801 791.1 102.728C723.343 110.109 688.21 179.008 629.114 222.979C515.274 303.105 470.566 350.294 356.972 181.884C296.556 90.5124 263.144 19.1089 182.025 8.46912C78.2924 1.5748 16.7317 135.363 -96.5957 175.25C-200.737 209.939 -234.212 223.294 -323.378 226.87" stroke="#3DDEED" stroke-opacity="0.05" stroke-width="0.286519" stroke-linecap="round" stroke-linejoin="round"/>
<path d="M1231.7 226.784C1151.2 218.519 1124.15 232.034 1063.24 232.533C940.198 230.224 889.366 96.4095 791.1 100.74C723.578 108.895 687.851 177.384 629.114 219.353C515.401 296.006 470.632 344.183 356.972 177.91C294.934 85.283 262.369 15.7641 182.025 5.48343C78.5178 -1.04584 16.8622 132.104 -96.5957 172.455C-202.621 208.161 -235.784 222.027 -323.378 226.861" stroke="#3DDEED" stroke-opacity="0.05" stroke-width="0.286519" stroke-linecap="round" stroke-linejoin="round"/>
<path d="M1231.7 226.769C1147.5 217.394 1116.96 231.987 1056.76 229.805C936.681 221.816 880.263 79.6114 778.141 100.971C731.574 114.223 702.121 151.059 661.501 189.745C637.642 211.61 632.849 213.197 603.188 232.203C541.328 272.845 499.711 307.723 434.724 262.95C326.312 179.491 289.31 -14.327 156.107 3.45935C92.5325 15.9481 49.0855 70.2449 -18.8403 125.046C-67.0122 162.631 -85.387 165.744 -128.991 180.518C-205.37 206.742 -240.64 221.041 -323.378 226.849" stroke="#3DDEED" stroke-opacity="0.05" stroke-width="0.286519" stroke-linecap="round" stroke-linejoin="round"/>
<path d="M1231.7 226.755C1146.95 216.599 1116.63 230.447 1056.76 227.277C985.416 221.347 961.877 188.089 888.286 133.335C753.298 36.3224 723.913 155.185 609.672 223.478C551.309 259.226 509.926 297.567 447.683 266.179C333.436 199.24 301.602 -0.0961241 169.066 0.604289C105.806 5.00264 62.1985 54.7972 -5.88156 112.338C-54.6882 152.624 -73.8935 159.886 -116.035 173.876C-197.694 201.219 -235.114 219.48 -323.378 226.835" stroke="#3DDEED" stroke-opacity="0.05" stroke-width="0.286519" stroke-linecap="round" stroke-linejoin="round"/>
<path d="M1231.7 226.74C1122.51 212.737 1074.98 240.751 1004.93 212.414C924.543 175.586 868.043 83.6121 784.616 96.1869C739.654 106.272 707.611 140.743 674.472 171.814C641.86 201.762 648.243 195.283 564.315 246.333C529.375 266.832 500.292 279.591 460.642 267.105C333.012 216.714 293.095 -42.204 136.668 6.80413C54.4779 37.2899 0.35606 128.388 -90.1149 163.296C-199.919 202.522 -247.666 219.439 -323.378 226.817" stroke="#3DDEED" stroke-opacity="0.05" stroke-width="0.286519" stroke-linecap="round" stroke-linejoin="round"/>
<path d="M1231.7 226.725C1143.74 214.696 1117.32 227.505 1056.76 222.392C981.465 213.776 956.082 173.933 881.814 122.696C753.544 38.5423 717.367 156.164 616.159 210.022C552.101 244.431 511.919 285.39 447.686 256.759C332.784 196.533 299.175 0.693314 169.066 0.61615C106.028 4.60197 62.1244 53.5923 -5.88156 109.875C-55.9903 150.383 -74.0536 156.535 -122.513 172.398C-200.174 198.343 -241.604 217.667 -323.378 226.796" stroke="#3DDEED" stroke-opacity="0.05" stroke-width="0.286519" stroke-linecap="round" stroke-linejoin="round"/>
<path d="M1231.7 226.713C1147.7 214.524 1121.89 224.959 1063.24 220.599C991.307 213.384 970.648 183.854 894.773 128.634C755.157 30.446 720.398 151.962 622.631 202C521.517 252.524 473.796 319.577 356.972 166.828C289.117 75.7651 259.736 11.336 182.025 1.08508C79.7161 -5.83595 17.0402 122.129 -96.5957 162.109C-216.843 202.216 -247.236 217.213 -323.378 226.775" stroke="#3DDEED" stroke-opacity="0.05" stroke-width="0.286519" stroke-linecap="round" stroke-linejoin="round"/>
<path d="M1231.7 226.698C1142.96 213.162 1115.86 224.368 1056.76 217.504C984.832 207.024 963.684 172.986 888.286 120.986C755.697 33.3307 720.662 151.617 616.156 200.445C514.408 248.85 469.439 312.386 350.488 156.909C290.538 76.7445 255.63 6.31144 175.547 0.67252C74.6471 0.0225611 16.5152 122.93 -103.074 162.501C-207.224 196.008 -242.666 215.483 -323.378 226.757" stroke="#3DDEED" stroke-opacity="0.05" stroke-width="0.286519" stroke-linecap="round" stroke-linejoin="round"/>
<path d="M1231.7 226.689C1142.78 212.387 1115.47 222.932 1056.76 215.29C981.216 203.24 956.432 162.388 881.814 114.163C755.718 37.1652 718.749 151.255 616.159 195.874C551.94 224.475 512.462 266.289 447.686 243.508C331.763 194.191 295.515 3.64038 169.066 2.10007C106.28 5.29644 62.2312 52.7464 -5.88156 107.109C-55.928 146.127 -74.2108 152.25 -122.513 167.492C-206.841 194.651 -246.394 214.951 -323.378 226.743" stroke="#3DDEED" stroke-opacity="0.05" stroke-width="0.286519" stroke-linecap="round" stroke-linejoin="round"/>
<path d="M1231.7 226.686C1141.75 211.515 1115.54 221.665 1056.76 213.298C984.313 200.86 962.494 165.213 888.286 116.146C757.551 33.6157 718.188 149.694 622.631 188.908C525.056 228.191 474.553 305.904 356.972 166.703C285.33 79.1366 258.76 17.0551 182.025 5.71489C80.3063 -2.85033 17.5118 120.609 -96.5957 158.797C-234.699 202.451 -251.745 214.877 -323.378 226.731" stroke="#3DDEED" stroke-opacity="0.05" stroke-width="0.286519" stroke-linecap="round" stroke-linejoin="round"/>
<path d="M1231.7 226.683C1144.42 211.277 1113.45 220.074 1056.76 211.307C943.25 190.452 884.831 62.5522 778.141 90.0048C731.797 104.791 706.125 134.632 661.501 165.308C639.475 179.468 635.127 179.836 609.672 189.659C549.188 214.833 507.547 257.89 441.205 235.403C324.09 187.46 289.574 3.94308 162.585 8.19007C99.8794 14.1525 55.8333 62.0774 -12.3624 113.225C-61.1839 148.81 -77.2244 152.416 -128.994 168.056C-211.531 193.485 -250.941 213.821 -323.378 226.722" stroke="#3DDEED" stroke-opacity="0.05" stroke-width="0.286519" stroke-linecap="round" stroke-linejoin="round"/>
<path d="M1231.7 226.677C1142.37 210.215 1114.28 218.919 1056.76 209.312C943.357 187.11 885.771 61.0386 778.141 89.1946C731.654 104.129 705.538 133.825 661.501 162.551C639.282 176.028 635.171 176.028 609.672 185.104C515.639 221.706 466.556 297.852 344.01 154.514C286.611 85.5679 249.313 13.924 169.063 10.9087C106.512 12.449 62.2757 57.6731 -5.88453 108.99C-55.5276 145.48 -74.0803 151.496 -122.516 165.397C-210.81 191.191 -250.057 212.737 -323.378 226.71" stroke="#3DDEED" stroke-opacity="0.05" stroke-width="0.286519" stroke-linecap="round" stroke-linejoin="round"/>
<path d="M1231.7 226.674C1143.42 209.719 1113.01 217.409 1056.76 207.324C983.764 192.152 962.334 155.306 888.286 109.548C760.054 34.3784 723.821 145.388 616.156 178.438C524.395 208.372 471.183 295.066 350.488 163.747C282.123 86.7313 252.75 22.5367 175.541 14.1436C75.7089 9.54345 16.4084 124.732 -103.08 159.307C-220.31 191.841 -247.681 211.319 -323.378 226.698" stroke="#3DDEED" stroke-opacity="0.05" stroke-width="0.286519" stroke-linecap="round" stroke-linejoin="round"/>
<path d="M1231.7 226.68C1141.46 208.737 1113.77 216.471 1056.76 205.695C945.146 181.418 887.491 58.7177 778.141 88.2212C734.27 102.52 710.42 127.459 667.985 153.956C641.922 169.157 637.028 168.614 609.672 176.77C519.168 207.262 466.384 292.142 344.01 159.726C282.45 90.9011 247.942 22.5159 169.063 18.0493C106.728 18.3609 62.6316 61.7776 -5.88453 111.133C-55.8212 146.243 -74.7833 151.944 -122.516 164.605C-215.829 189.728 -250.107 210.992 -323.378 226.698" stroke="#3DDEED" stroke-opacity="0.05" stroke-width="0.286519" stroke-linecap="round" stroke-linejoin="round"/>
<path d="M1231.7 226.695C1139.35 207.784 1114.78 215.794 1056.76 204.395C948.91 180.174 891.086 63.7809 784.613 86.8678C737.948 99.6296 711.853 126.723 667.985 152.739C641.702 167.208 637.016 166.258 609.672 173.683C520.601 201.59 465.969 290.617 344.01 164.213C278.899 94.2548 246.866 28.7781 169.063 23.4003C70.8298 22.6494 16.4885 129.94 -109.557 161.821C-225.103 190.621 -244.279 208.953 -323.378 226.71" stroke="#3DDEED" stroke-opacity="0.05" stroke-width="0.286519" stroke-linecap="round" stroke-linejoin="round"/>
<path d="M1231.7 226.71C1116.99 202.546 1072.45 218.979 1004.93 184.359C931.861 143.459 869.333 63.7691 778.141 89.0581C734.075 103.58 709.216 128.364 667.985 151.528C621.51 175.586 625.187 158.286 564.315 189.564C524.433 210.562 495.277 228.238 454.161 228.669C316.183 221.745 278.834 -5.61336 130.187 33.5979C49.5067 58.976 -2.5922 133.994 -96.5957 159.304C-251.478 198.029 -244.03 208.116 -323.378 226.719" stroke="#3DDEED" stroke-opacity="0.05" stroke-width="0.286519" stroke-linecap="round" stroke-linejoin="round"/>
<path d="M1231.7 226.722C1139.08 206.668 1107.31 213.88 1050.28 200.246C945.813 172.14 885.664 53.8149 771.658 91.6223C725.903 109.061 704.165 132.763 661.501 153.455C638.392 163.492 634.64 162.055 609.672 167.507C519.607 191.488 463.104 290.783 337.532 166.795C274.898 102.532 241.307 36.5034 162.585 33.8917C100.336 35.5448 56.2516 77.9969 -12.3624 122.28C-57.8115 150.733 -76.3286 155.82 -122.513 165.949C-219.563 187.579 -247.31 208.134 -323.378 226.728" stroke="#3DDEED" stroke-opacity="0.05" stroke-width="0.286519" stroke-linecap="round" stroke-linejoin="round"/>
<path d="M1231.7 226.737C1138.77 206.072 1107.18 212.915 1050.28 198.901C948.133 170.701 889.339 58.2399 778.141 89.892C733.389 104.811 709.332 128.45 667.985 149.095C646.024 159.028 640.483 159.328 616.156 163.177C527.462 180.198 468.425 283.886 350.488 183.51C277.268 117.656 256.274 58.2993 182.022 41.2371C81.994 24.4628 18.0546 133.214 -96.5987 160.951C-251.629 195.396 -238.78 205.217 -323.378 226.737" stroke="#3DDEED" stroke-opacity="0.05" stroke-width="0.286519" stroke-linecap="round" stroke-linejoin="round"/>
<path d="M1231.7 226.758C1136.58 205.214 1108.25 212.544 1050.28 198.038C948.041 169.422 887.663 54.3758 771.658 93.2903C722.599 112.011 699.152 137.666 655.029 153.998C630.179 161.702 628.8 158.254 603.188 163.928C514.509 188.935 456.015 289.257 331.052 171.075C273.184 114.036 242.399 54.3847 169.063 45.6266C71.5476 39.8452 15.5661 140.642 -109.557 164.946C-228.461 187.279 -236.297 203.899 -323.378 226.758" stroke="#3DDEED" stroke-opacity="0.05" stroke-width="0.286519" stroke-linecap="round" stroke-linejoin="round"/>
<path d="M1231.7 226.784C1141.24 205.896 1114.21 212.108 1056.76 199.204C982.699 180.56 962.693 142.696 888.286 104.669C764.142 45.5554 722.887 150.234 622.631 159.862C530.009 169.834 471.225 280.28 356.972 199.335C281.177 141.577 262.983 79.834 188.505 56.2218C88.5698 30.7042 20.2139 136.719 -90.1149 162.842C-172.652 180.195 -137.166 164.563 -278.021 213.067C-297.318 219.569 -304.87 221.81 -323.378 226.781" stroke="#3DDEED" stroke-opacity="0.05" stroke-width="0.286519" stroke-linecap="round" stroke-linejoin="round"/>
<path d="M1231.7 226.808C1117.55 200.068 1072.45 214.557 1004.93 179.132C936.595 140.233 875.817 70.2656 784.616 92.9697C739.728 106.248 715.783 128.002 674.472 147.267C623.624 168.632 623.844 148.774 570.802 173.517C488.894 214.586 439.906 264.443 350.491 200.201C271.763 139.47 236.998 46.4991 136.668 60.1185C56.7973 75.035 0.670462 144.8 -90.1149 164.807C-127.348 172.027 -151.726 172.238 -206.746 188.621C-255.102 203.59 -271.896 212.66 -323.378 226.808" stroke="#3DDEED" stroke-opacity="0.05" stroke-width="0.286519" stroke-linecap="round" stroke-linejoin="round"/>
<path d="M1231.7 226.835C1147.06 206.733 1119.02 211.206 1063.24 199.768C986.956 182.376 968.607 146.774 894.773 108.886C766.2 47.2292 726.037 153.923 622.631 158.488C528.203 164.091 468.016 285.304 350.491 206.006C277.197 152.54 260.961 95.2105 188.503 70.3874C125.21 52.5921 73.9204 87.3012 13.5551 122.984C-110.097 194.898 -79.2828 143.72 -278.024 212.767C-298.451 219.742 -304.772 221.605 -323.381 226.832" stroke="#3DDEED" stroke-opacity="0.05" stroke-width="0.286519" stroke-linecap="round" stroke-linejoin="round"/>
<path d="M1231.7 226.858C1122.59 200.575 1077.12 212.912 1011.4 181.551C947.545 148.106 886.788 78.6558 797.575 93.6197C750.557 103.716 723.465 126.501 680.946 146.023C627.462 168.389 626.567 147.587 577.277 167.662C503.703 201.314 447.701 267.922 356.975 215.904C272.074 162.328 243.677 66.8616 143.151 72.1414C63.3998 80.4751 5.8937 148.017 -83.631 167.525C-122.163 174.749 -146.144 172.846 -200.263 187.018C-249.051 200.531 -264.792 209.948 -323.378 226.858" stroke="#3DDEED" stroke-opacity="0.05" stroke-width="0.286519" stroke-linecap="round" stroke-linejoin="round"/>
<path d="M1231.7 226.87C1114.5 198.708 1068.9 214.417 998.443 174.719C921.972 128.539 869.025 73.5036 778.144 101.404C731.355 117.6 708.816 138.538 667.988 152.736C619.27 167.029 619.006 146.599 564.318 173.71C490.226 213.162 434.33 272.293 344.013 213.571C266.581 158.906 233.026 65.9326 130.19 80.294C50.6012 95.1808 -3.06975 158.467 -96.5928 172.012C-135.982 176.898 -160.77 176.331 -213.224 191.054C-258.97 204.552 -268.393 210.945 -323.378 226.873" stroke="#3DDEED" stroke-opacity="0.05" stroke-width="0.286519" stroke-linecap="round" stroke-linejoin="round"/>
<path d="M1231.7 226.87C1141.52 205.531 1106.72 210.79 1050.28 196.714C953.187 169.781 895.796 68.3158 778.141 104.794C732.132 120.799 707.745 142.031 667.985 155.122C645.122 161.388 639.16 159.871 616.156 159.791C527.912 163.815 464.082 287.251 350.488 223.87C277.389 178.785 261.494 119.556 188.499 92.0675C126.357 72.4263 76.6343 102.402 13.552 135.799C-113.232 201.685 -106.17 154.648 -252.11 203.81C-293.095 217.901 -295.815 218.991 -323.384 226.87" stroke="#3DDEED" stroke-opacity="0.05" stroke-width="0.286519" stroke-linecap="round" stroke-linejoin="round"/>
<path d="M1231.7 226.87C1144.25 206.499 1112.03 210.862 1056.76 198.765C983.043 180.738 962.032 142.815 888.286 112.142C765.933 65.5972 725.503 165.667 622.631 161.278C526.815 159.224 466.28 290.554 350.491 229.96C277.348 187.318 261.735 127.756 188.503 99.4218C127.031 79.3503 76.8391 108.073 20.0359 137.066C-115.454 205.686 -106.301 157.007 -245.626 201.905C-281.435 213.72 -287.72 216.765 -323.381 226.87" stroke="#3DDEED" stroke-opacity="0.05" stroke-width="0.286519" stroke-linecap="round" stroke-linejoin="round"/>
<path d="M1231.7 226.87C1140.91 206.054 1113.45 211.351 1056.76 199.201C954.542 174.684 902.354 76.8128 784.614 109.524C736.323 124.803 708.958 147.925 667.985 159.898C645.247 165.237 639.597 163.412 616.156 162.486C526.326 163.631 460.15 296.297 344.01 232.488C273.124 189.339 256.348 129.646 182.022 104.595C121.615 87.8176 75.2018 114.923 13.5551 144.898C-115.682 206.843 -111.1 158.723 -252.107 204.276C-289.758 216.694 -291.523 217.922 -323.381 226.867" stroke="#3DDEED" stroke-opacity="0.05" stroke-width="0.286519" stroke-linecap="round" stroke-linejoin="round"/>
<path d="M1231.7 226.87C1141.41 206.499 1112.37 211.313 1056.76 199.637C954.676 175.648 903.452 79.3384 784.613 112.893C735.362 128.625 709.444 150.944 667.985 162.284C645.196 167.196 639.579 165.178 616.156 163.833C527.521 163.495 462.487 292.994 350.488 242.137C277.704 204.594 261.779 143.957 188.499 114.133C127.597 92.9697 77.8207 119.232 20.0329 146.427C-118.106 210.814 -110.441 160.981 -245.629 202.46C-280.741 213.562 -287.139 216.785 -323.384 226.867" stroke="#3DDEED" stroke-opacity="0.05" stroke-width="0.286519" stroke-linecap="round" stroke-linejoin="round"/>
<path d="M1231.7 226.87C1134.95 205.739 1106.95 211.945 1050.28 199.103C980.623 181.444 961.154 146.403 888.286 119.579C766.236 78.9585 726.129 176.717 622.631 166.733C528.013 159.924 464.584 296.211 350.491 247.565C279.759 213.013 264.641 156.609 194.983 123.66C97.6074 83.4162 29.8595 166.854 -77.1561 182.884C-131.827 189.398 -158.032 177.898 -239.145 201.02C-276.689 212.182 -283.126 215.88 -323.378 226.87" stroke="#3DDEED" stroke-opacity="0.05" stroke-width="0.286519" stroke-linecap="round" stroke-linejoin="round"/>
<path d="M1231.7 226.87C1133.84 206.143 1107.43 212.761 1050.28 200.439C980.187 183.462 961.688 149.175 888.286 123.316C766.108 84.5351 726.152 181.251 622.631 169.959C527.215 161.943 464.658 298.574 350.491 252.542C279.647 219.575 264.677 163.379 194.983 130.19C97.732 89.6101 29.8862 171.434 -77.1561 185.881C-132.927 191.725 -158.115 179.512 -239.145 201.706C-275.375 212.093 -283.668 216.302 -323.378 226.864" stroke="#3DDEED" stroke-opacity="0.05" stroke-width="0.286519" stroke-linecap="round" stroke-linejoin="round"/>
<path d="M1231.7 226.87C1134.94 207.012 1106.52 213.289 1050.28 201.774C956.283 180.07 903.244 92.2456 784.616 126.524C707.92 151.273 694.089 181.878 622.631 173.191C527.918 164.079 463.994 300.642 350.491 257.528C279.679 226.22 264.668 170.146 194.983 136.725C97.8388 95.8189 30.0345 176.007 -77.1561 188.888C-133.455 193.969 -158.483 181.207 -239.145 202.4C-275.277 212.375 -283.505 216.545 -323.378 226.87" stroke="#3DDEED" stroke-opacity="0.05" stroke-width="0.286519" stroke-linecap="round" stroke-linejoin="round"/>
<path d="M1231.7 226.87C1136.36 207.941 1113.61 214.034 1056.76 204.365C957.704 185.175 907.987 99.2853 791.1 129.364C742.845 143.399 715.175 164.453 674.472 175.621C652.766 180.388 644.529 179.358 622.631 176.423C525.035 165.872 460.986 308.819 344.013 259.796C272.475 225.38 257.114 165.703 182.025 138.123C123.071 119.811 78.8381 141.432 13.558 167.389C-119.363 219.281 -118.236 169.525 -252.104 206.609C-284.532 215.895 -290.665 218.632 -323.378 226.873" stroke="#3DDEED" stroke-opacity="0.05" stroke-width="0.286519" stroke-linecap="round" stroke-linejoin="round"/>
<path d="M1231.7 226.87C1099.77 201.546 1063.87 220.475 991.959 183.976C914.56 142.379 865.94 109.599 778.144 138.072C728.789 155.437 701.647 175.933 661.504 181.83C617.401 185.504 611.348 166.086 557.834 192.731C483.255 233.162 425.159 302.105 337.535 261.956C258.386 220.777 232.724 129.709 123.712 138.155C44.2746 147.48 -7.36757 196.847 -103.071 195.456C-143.385 194.179 -166.743 190.425 -213.224 198.213C-255.618 206.175 -274.272 214.839 -323.378 226.87" stroke="#3DDEED" stroke-opacity="0.05" stroke-width="0.286519" stroke-linecap="round" stroke-linejoin="round"/>
<path d="M1231.7 226.87C1099.22 202.641 1063.51 221.721 991.959 186.686C914.503 146.459 866.18 115.051 778.144 143.42C728.329 160.794 701.614 180.64 661.504 186.095C617.719 189.271 611.143 169.988 557.834 195.913C483.721 235.251 425.04 304.349 337.535 265.794C257.805 225.742 233.124 135.674 123.712 143.494C44.3487 152.276 -7.54257 200.531 -103.071 198.005C-143.142 196.266 -166.791 192.167 -213.224 199.361C-255.135 206.71 -274.835 215.408 -323.378 226.867" stroke="#3DDEED" stroke-opacity="0.05" stroke-width="0.286519" stroke-linecap="round" stroke-linejoin="round"/>
<path d="M1231.7 226.87C1128.79 208.939 1101.45 217.237 1043.8 207.06C956.016 189.092 901.453 109.86 778.145 149.145C731.156 165.314 706.013 182.81 667.988 189.855C645.259 192.731 639.62 190.134 616.159 186.938C525.121 179.518 456.923 312.763 344.013 271.542C272.303 240.979 257.271 182.682 182.025 155.057C120.897 135.965 75.0268 158.577 7.07718 182.124C-119.764 224.778 -123.614 175.995 -258.584 210.271C-290.132 218.539 -293.335 220.08 -323.381 226.873" stroke="#3DDEED" stroke-opacity="0.05" stroke-width="0.286519" stroke-linecap="round" stroke-linejoin="round"/>
<path d="M1231.7 226.87C1128.73 209.826 1101.4 218.379 1043.8 209.173C956.019 192.74 902.236 115.769 778.144 154.864C731.263 170.769 705.921 187.843 667.988 194.494C645.202 197.156 639.413 194.506 616.159 191.167C525.029 183.017 456.685 314.036 344.013 274.421C272.122 244.814 257.366 187.35 182.025 159.987C120.698 141.01 74.2348 163.516 7.07716 185.932C-122.11 227.725 -121.84 176.728 -265.062 212.583C-296.31 220.593 -298.048 221.392 -323.378 226.867" stroke="#3DDEED" stroke-opacity="0.05" stroke-width="0.286519" stroke-linecap="round" stroke-linejoin="round"/>
<path d="M1231.7 226.87C1129.05 210.767 1109.73 219.296 1050.28 212.215C956.966 198.889 907.634 123.547 784.616 158.571C704.396 183.54 691.862 208.526 622.631 196.379C527.266 182.008 462.786 310.771 350.491 279.499C277.197 254.718 261.88 197.56 188.503 167.255C126.891 145.124 79.6894 165.905 13.5551 187.668C-121.979 231.177 -120.532 179.877 -258.584 211.657C-291.104 219.421 -293.433 220.694 -323.381 226.867" stroke="#3DDEED" stroke-opacity="0.05" stroke-width="0.286519" stroke-linecap="round" stroke-linejoin="round"/>
<path d="M1231.7 226.87C1097.8 207.024 1063.52 228.342 991.959 199.07C912.175 164.139 866.334 139.173 778.144 166.311C726.624 183.314 701.395 200.51 661.504 204.41C617.82 206.012 610.932 187.341 557.834 210.075C481.754 245.957 421.045 314.621 331.055 274.855C255.233 236.925 228.458 153.449 117.231 163.78C39.5141 173.597 -10.7874 214.245 -103.074 208.042C-144.943 204.511 -169.941 198.898 -219.705 205.169C-259.353 210.936 -277.932 217.958 -323.378 226.873" stroke="#3DDEED" stroke-opacity="0.05" stroke-width="0.286519" stroke-linecap="round" stroke-linejoin="round"/>
<path d="M1231.7 226.87C1097.78 208.235 1063.55 230.165 991.959 202.561C911.386 169.175 866.097 145.892 778.144 172.363C727.873 188.54 700.976 205.564 661.504 209.078C617.716 210.351 611.013 191.992 557.834 213.69C481.541 248.07 420.935 314.751 331.055 276.128C254.75 238.988 228.66 157.535 117.231 167.786C39.5437 177.473 -10.9268 217.127 -103.074 210.286C-144.673 206.484 -169.733 200.664 -219.705 206.389C-259.976 211.779 -276.544 218.18 -323.378 226.873" stroke="#3DDEED" stroke-opacity="0.05" stroke-width="0.286519" stroke-linecap="round" stroke-linejoin="round"/>
<path d="M1231.7 226.87C1122.14 212.636 1107.13 223.659 1043.8 218.246C956.707 208.579 905.359 141.408 778.144 178.592C727.674 194.346 700.875 210.618 661.504 213.794C637.467 214.328 633.4 210.642 609.675 207.855C521.247 203.252 449.581 319.915 337.535 279.149C267.186 249.651 251.902 196.64 175.547 174.951C117.575 161.316 75.8156 179.857 7.08003 199.756C-121.357 235.539 -123.059 186.513 -265.059 215.207C-296.482 221.754 -297.143 222.297 -323.375 226.873" stroke="#3DDEED" stroke-opacity="0.05" stroke-width="0.286519" stroke-linecap="round" stroke-linejoin="round"/>
<path d="M1231.7 226.87C1125.09 214.008 1106.61 224.802 1043.8 220.73C957.327 212.996 906.023 148.552 778.144 184.822C727.668 200.088 700.786 215.673 661.504 218.513C637.532 218.878 633.445 215.284 609.675 212.363C521.15 207.042 449.442 319.135 337.535 279.386C267.222 250.634 251.73 198.961 175.547 178.171C116.768 164.925 73.4398 184.083 7.08003 202.697C-120.66 237.163 -123.474 189.069 -265.059 215.91C-296.672 222.092 -296.974 222.555 -323.375 226.87" stroke="#3DDEED" stroke-opacity="0.05" stroke-width="0.286519" stroke-linecap="round" stroke-linejoin="round"/>
<path d="M1231.7 226.87C1096.6 211.826 1063.79 235.976 991.959 213.672C910.585 186.134 866.933 166.626 778.144 191.054C728.015 205.73 700.54 220.742 661.504 223.232C617.728 223.597 611.116 206.612 557.834 224.665C483.765 252.658 424.248 309.685 337.535 279.624C255.177 246.817 234.473 170.754 123.712 177.776C44.055 185.374 -8.25452 225.146 -103.071 216.59C-144.513 212.165 -169.697 206.021 -219.702 210.138C-259.329 214.114 -277.048 219.819 -323.375 226.873" stroke="#3DDEED" stroke-opacity="0.05" stroke-width="0.286519" stroke-linecap="round" stroke-linejoin="round"/>
<path d="M1231.7 226.87C1095.1 212.921 1064.75 238.154 991.959 217.376C909.891 191.677 867.114 173.565 778.144 197.284C726.775 211.811 700.564 225.778 661.504 227.948C617.802 228.004 611.104 211.488 557.834 228.322C483.777 254.516 424.168 309.142 337.535 279.858C256.526 248.432 234.034 174.066 123.712 181.302C43.8711 189 -8.28122 227.758 -103.071 218.688C-144.557 214.043 -169.659 207.808 -219.702 211.384C-259.092 214.898 -277.045 220.323 -323.375 226.87" stroke="#3DDEED" stroke-opacity="0.05" stroke-width="0.286519" stroke-linecap="round" stroke-linejoin="round"/>
<path d="M1231.7 226.87C1100.32 214.58 1066.78 238.148 998.443 222.789C937.381 206.989 883.312 178.364 784.616 201.833C731.527 215.403 702.43 230.494 661.504 232.426C617.864 232.209 611.199 216.326 557.834 231.693C483.89 255.664 424.153 307.103 337.535 278.407C256.286 247.627 233.859 176.2 123.712 183.925C43.7851 191.9 -8.34351 229.613 -103.071 220.383C-144.355 215.693 -169.617 209.458 -219.702 212.589C-258.884 215.705 -276.903 220.798 -323.375 226.873" stroke="#3DDEED" stroke-opacity="0.05" stroke-width="0.286519" stroke-linecap="round" stroke-linejoin="round"/>
<path d="M1231.7 226.87C1094.89 215.195 1065.05 241.763 991.959 224.864C911.522 204.071 869.099 187.525 778.144 209.678C727.256 222.778 700.235 235.29 661.504 236.789C618.015 236.302 611.259 221.148 557.834 234.928C483.789 256.561 424.124 304.322 337.535 276.146C256.013 245.957 233.658 177.788 123.712 186.113C43.4855 194.494 -8.39689 231.132 -103.071 221.878C-144.803 217.139 -169.644 211.058 -219.702 213.767C-259.107 216.542 -275.948 221.166 -323.375 226.87" stroke="#3DDEED" stroke-opacity="0.05" stroke-width="0.286519" stroke-linecap="round" stroke-linejoin="round"/>
<path d="M1231.7 226.87C1139.43 219.652 1124.47 227.295 1056.76 232.349C983.263 236.774 976.45 218.169 894.77 207.882C767.479 194.239 719.381 255.163 622.628 236.367C526.183 218.943 461.197 303.818 350.488 277.748C275.337 256.893 260.154 213.536 188.5 192.963C129.677 178.589 85.7284 194.346 20.033 211.449C-115.32 245.686 -118.144 202.822 -252.107 217.798C-283.292 221.558 -288.933 223.083 -323.381 226.87" stroke="#3DDEED" stroke-opacity="0.05" stroke-width="0.286519" stroke-linecap="round" stroke-linejoin="round"/>
<path d="M1231.7 226.87C1099.1 217.59 1067.91 243.464 998.443 233.512C936.974 222.671 883.802 198.889 778.144 222.059C726.398 234.002 699.959 244.674 661.504 245.514C618.348 244.499 611.448 230.794 557.834 241.398C483.768 258.27 424.1 298.784 337.535 271.617C255.052 242.487 233.174 180.949 123.712 190.487C43.3995 199.599 -8.57783 234.162 -103.071 224.873C-231.469 210.33 -197.19 214.322 -323.375 226.873" stroke="#3DDEED" stroke-opacity="0.05" stroke-width="0.286519" stroke-linecap="round" stroke-linejoin="round"/>
<path d="M1231.7 226.87C1136.34 220.97 1116.56 230.503 1050.28 237.317C957.464 245.372 918.318 199.177 778.141 228.25C726.544 239.469 699.745 249.364 661.501 249.874C638.383 249.191 633.854 246.506 609.672 242.778C519.595 232.477 448.668 303.56 337.532 269.352C265.502 244.529 249.873 205.911 175.544 193.369C114.042 185.311 69.4357 204.751 0.596319 219.931C-121.745 245.351 -107.555 203.392 -297.461 224.377C-307.059 225.38 -308.96 225.585 -323.378 226.87" stroke="#3DDEED" stroke-opacity="0.05" stroke-width="0.286519" stroke-linecap="round" stroke-linejoin="round"/>
<path d="M1231.7 226.87C1103.04 219.78 1072.68 244.576 1004.93 240.864C950.743 235.993 894.126 212.625 784.616 232.791C730.014 243.443 701.709 253.631 661.504 253.848C618.855 252.352 611.727 240.205 557.834 247.467C483.522 259.374 424.124 292.074 337.535 265.892C254.189 237.902 232.368 183.362 123.712 194.105C43.4707 203.95 -9.04943 236.361 -103.071 227.366C-230.309 213.384 -195.6 216.655 -323.375 226.873" stroke="#3DDEED" stroke-opacity="0.05" stroke-width="0.286519" stroke-linecap="round" stroke-linejoin="round"/>
<path d="M1231.7 226.87C1137.77 222.261 1121.77 230.972 1050.28 241.104C957.956 252.892 923.808 213.037 778.142 239.694C723.145 250.177 694.748 259 655.029 257.395C632.125 255.555 626.759 252.702 603.188 249.675C513.456 241.398 442.38 296.235 331.052 259.793C261.488 234.937 243.241 201.356 169.063 194.117C107.167 190.131 62.4507 209.666 -5.88452 223.214C-118.153 243.903 -110.738 208.496 -297.464 224.879C-307.16 225.683 -309.183 225.855 -323.381 226.867" stroke="#3DDEED" stroke-opacity="0.05" stroke-width="0.286519" stroke-linecap="round" stroke-linejoin="round"/>
<path d="M1231.7 226.87C1139.2 222.887 1122.75 231.263 1050.28 242.929C982.343 252.97 977.212 239.205 888.286 236.364C780.814 234.233 723.839 264.316 655.029 261.173C632.81 259.336 626.374 256.567 603.188 253.43C544.347 247.319 502.597 264.072 434.725 268.723C295.815 275.754 271.914 203.056 169.063 194.755C68.7031 189.823 13.4394 241.784 -116.035 227.574C-218.48 215.527 -221.654 220.374 -323.381 226.873" stroke="#3DDEED" stroke-opacity="0.05" stroke-width="0.286519" stroke-linecap="round" stroke-linejoin="round"/>
<path d="M1231.7 226.87C1147.95 223.775 1131.92 229.405 1056.76 243.585C963.242 260.44 932.777 228.488 791.1 248.963C691.452 264.099 685.256 271.631 616.156 259.166C550.167 248.263 506.773 263.82 434.724 266.221C298.888 268.572 270.01 204.733 175.544 195.794C76.2814 189.458 14.1305 240.87 -109.554 229.093C-221.268 217.424 -206.26 220.415 -323.378 226.867" stroke="#3DDEED" stroke-opacity="0.05" stroke-width="0.286519" stroke-linecap="round" stroke-linejoin="round"/>
<path d="M1231.7 226.87C1143.21 224.131 1129.78 230.731 1050.28 246.577C962.174 263.149 935.212 233.616 778.141 256.617C634.246 278.262 659.244 266.583 590.229 259.431C526.515 254.284 480.147 267.227 408.804 262.716C276.363 252.047 260.797 192.399 149.623 196.168C84.6546 199.952 37.8679 220.762 -31.802 229.532C-81.4658 234.94 -104.257 230.099 -154.912 225.208C-217.469 219.629 -243.603 223.104 -323.378 226.867" stroke="#3DDEED" stroke-opacity="0.05" stroke-width="0.286519" stroke-linecap="round" stroke-linejoin="round"/>
<path d="M1231.7 226.87C1150.87 224.707 1133.5 229.452 1056.76 246.455C963.197 266.571 945.069 239.341 784.614 260.701C637.876 280.832 661.744 271.255 590.229 262.731C525.7 256.21 479.963 265.452 408.804 259.021C271.822 244.609 257.891 189.419 143.142 197.043C78.8293 202.706 30.3252 222.926 -38.2829 230.295C-86.8344 234.67 -107.879 229.788 -161.392 225.351C-218.86 221.018 -246.88 223.781 -323.381 226.873" stroke="#3DDEED" stroke-opacity="0.05" stroke-width="0.286519" stroke-linecap="round" stroke-linejoin="round"/>
<path d="M1231.7 226.87C1146.61 224.897 1132.14 230.135 1050.28 248.904C956.423 269.545 976.192 240.49 745.743 270.536C652.813 282.158 644.621 273.24 590.229 265.927C524.516 257.964 479.518 263.502 408.804 255.163C269.31 236.985 255.586 189.054 143.142 197.37C80.3568 203.267 34.8959 221.285 -31.805 229.417C-80.7332 234.622 -103.16 230.633 -154.915 226.428C-213.026 222.039 -239.37 223.991 -323.381 226.876" stroke="#3DDEED" stroke-opacity="0.05" stroke-width="0.286519" stroke-linecap="round" stroke-linejoin="round"/>
<path d="M1231.7 226.87C1147.4 225.211 1130.63 230.393 1050.28 249.96C982.405 265.921 984.221 255.534 875.328 261.633C816.214 265.298 782.564 270.993 732.784 276.297C647.985 284.788 640.273 275.119 570.799 266.556C499.833 258.421 451.243 260.368 376.409 245.6C250.443 219.356 234.391 182.026 110.747 201.961C44.0522 213.527 -1.42061 230.179 -70.6782 231.743C-159.106 232.209 -100.235 221.015 -323.381 226.873" stroke="#3DDEED" stroke-opacity="0.05" stroke-width="0.286519" stroke-linecap="round" stroke-linejoin="round"/>
<path d="M1231.7 226.87C1153.52 225.609 1132.11 229.639 1056.76 249.349C985.692 267.666 993.994 258.457 881.814 265.722C815.146 270.346 777.462 276.638 726.301 281.019C647.652 287.153 637.503 278.683 557.831 267.411C483.068 257.154 430.869 254.64 350.491 235.124C234.984 206.223 216.523 180.293 78.3517 208.538C-112.915 248.527 -73.5672 224.612 -232.667 225.336C-248.719 225.478 -243.039 225.41 -323.381 226.87" stroke="#3DDEED" stroke-opacity="0.05" stroke-width="0.286519" stroke-linecap="round" stroke-linejoin="round"/>
<path d="M1231.7 226.87C1149.74 225.837 1129.6 230.39 1050.28 252.073C984.713 269.492 990.945 260.814 868.856 271.266C768.884 280.119 714.16 290.777 648.545 284.794C637.532 283.568 440.191 251.61 363.45 233.616C255.352 207.763 234.388 193.574 162.585 196.785C97.207 200.893 50.4588 217.498 -18.8403 227.268C-107.274 238.673 -81.2434 223.802 -323.378 226.867" stroke="#3DDEED" stroke-opacity="0.05" stroke-width="0.286519" stroke-linecap="round" stroke-linejoin="round"/>
<path d="M1231.7 226.87C1093.31 225.523 1074.93 252.993 998.443 263.927C974.777 266.699 966.151 266.245 907.729 271.079C659.167 292.946 717.313 309.365 408.807 240.048C246.074 202.679 220.058 183.685 97.7913 205.217C-133.155 247.437 18.5529 223.81 -323.378 226.87" stroke="#3DDEED" stroke-opacity="0.05" stroke-width="0.286519" stroke-linecap="round" stroke-linejoin="round"/>
<path d="M1231.7 226.87C1148.82 226.161 1128.11 230.162 1050.28 252.619C995.4 268.212 998.737 264.348 907.729 273.501C767.923 288.159 702.845 301.901 609.672 285.521C529.17 270.474 377.079 224.582 259.777 202.599C128.493 179.524 52.4402 226.808 -77.1591 230.153C-132.482 230.874 -132.426 225.929 -323.381 226.867" stroke="#3DDEED" stroke-opacity="0.05" stroke-width="0.286519" stroke-linecap="round" stroke-linejoin="round"/>
<path d="M1231.7 226.87C1085.9 225.793 1074.34 254.133 991.959 266.453C566.234 321.791 657.257 294.116 356.972 219.617C121.983 162.524 80.2945 229.613 -96.5957 229.559C-135.436 229.23 -181.007 226.731 -323.378 226.867" stroke="#3DDEED" stroke-opacity="0.05" stroke-width="0.286519" stroke-linecap="round" stroke-linejoin="round"/>
<path d="M1231.7 226.87C1086.77 225.962 1081.91 250.477 998.443 266.263C998.321 266.283 818.791 291.264 771.658 295.733C622.681 308.973 575.183 284.892 460.642 246.277C223.25 167.843 161.956 197.658 0.596319 221.38C-89.3081 234.02 -118.381 227.173 -323.378 226.87" stroke="#3DDEED" stroke-opacity="0.05" stroke-width="0.286519" stroke-linecap="round" stroke-linejoin="round"/>
<path d="M1231.7 226.87C1084.22 226.232 1074.09 253.278 991.959 268.221C711.014 314.273 645.828 315.075 518.961 266.865C408.341 224.279 340.38 196.755 220.904 195.073C146.642 194.823 94.6621 206.253 20.0389 217.771C-96.1805 235.248 -179.141 227.633 -323.378 226.873" stroke="#3DDEED" stroke-opacity="0.05" stroke-width="0.286519" stroke-linecap="round" stroke-linejoin="round"/>
<path d="M1231.7 226.87C1083.79 226.176 1075.4 252.05 991.959 268.112C606.297 335.633 613.842 303.438 441.205 235.824C251.303 162.827 122.208 206.282 -25.3212 222.626C-123.011 232.818 -301.156 227.034 -323.381 226.867" stroke="#3DDEED" stroke-opacity="0.05" stroke-width="0.286519" stroke-linecap="round" stroke-linejoin="round"/>
<path d="M1231.7 226.87C1077.37 226.033 1075.8 252.225 985.484 268.913C799.144 301.203 673.098 338.28 525.441 272.308C393.004 212.446 356.503 193.369 233.856 194.901C69.1746 197.871 58.473 226.392 -213.23 228.784C-275.438 229.075 -279.652 227.28 -323.384 226.87" stroke="#3DDEED" stroke-opacity="0.05" stroke-width="0.286519" stroke-linecap="round" stroke-linejoin="round"/>
<path d="M1231.7 226.87C1075.72 225.941 1077.54 250.675 985.484 268.577C844.516 294.472 679.472 341.094 551.356 285.901C440.138 236.266 386.953 191.68 259.777 194.013C31.1616 199.581 64.9955 231.197 -323.381 226.867" stroke="#3DDEED" stroke-opacity="0.05" stroke-width="0.286519" stroke-linecap="round" stroke-linejoin="round"/>
<path d="M1231.7 226.87C1074.64 225.754 1079.66 249.031 985.484 268.245C857.306 292.884 803.445 312.101 706.858 314.012C614.788 314.917 589.076 305.569 551.356 288.281C440.876 235.706 388.747 186.932 259.777 193.233C-30.7728 208.921 17.1885 231.319 -323.378 226.87" stroke="#3DDEED" stroke-opacity="0.05" stroke-width="0.286519" stroke-linecap="round" stroke-linejoin="round"/>
<path d="M1231.7 226.87C1158.47 226.458 1132.7 224.612 1056.76 247.903C981.388 271.625 1008.22 261.781 920.685 281.784C824.32 304.399 767.757 319.524 667.985 316.467C607.347 314.199 589.704 313.214 512.471 269.679C302.411 150.252 348.338 193.734 -148.434 226.499C-251.291 232.574 -268.791 227.675 -323.381 226.867" stroke="#3DDEED" stroke-opacity="0.05" stroke-width="0.286519" stroke-linecap="round" stroke-linejoin="round"/>
<path d="M1231.7 226.87C1159.11 226.422 1133.13 223.805 1056.76 246.791C974.142 272.225 1005.12 260.971 927.169 279.621C826.349 304.245 772.461 321.699 667.985 319.402C606.985 317.648 589.378 316.876 512.471 271.394C347.543 172.971 327.338 187.704 214.417 197.328C-309.185 240.27 -196.807 228.838 -323.378 226.87" stroke="#3DDEED" stroke-opacity="0.05" stroke-width="0.286519" stroke-linecap="round" stroke-linejoin="round"/>
<path d="M1231.7 226.87C1180.88 226.52 1156.29 224.134 1108.6 232.619C1059.19 242.291 1038.84 253.062 991.959 263.912C864.561 291.961 822.772 311.074 739.259 319.728C610.977 331.523 577.339 311.694 531.917 285.097C460.247 242.075 393.309 190.823 305.134 190.048C267.441 190.766 262.823 195.39 188.503 200.833C129.116 204.973 94.8282 205.514 0.596319 212.518C-291.374 235.599 -160.363 229.479 -323.378 226.87" stroke="#3DDEED" stroke-opacity="0.05" stroke-width="0.286519" stroke-linecap="round" stroke-linejoin="round"/>
<path d="M1231.7 226.87C1166 226.375 1136.63 222.107 1063.24 242.481C907.13 287.248 1085.59 235.569 842.932 301.067C769.578 320.536 719.072 327.902 635.589 324.474C520.734 317.761 445.079 188.84 305.137 189.909C257.683 191.663 258.846 199.759 136.671 205.048C-114.558 214.922 -124.373 225.656 -213.224 229.215C-265.985 230.88 -278.502 227.612 -323.378 226.873" stroke="#3DDEED" stroke-opacity="0.05" stroke-width="0.286519" stroke-linecap="round" stroke-linejoin="round"/>
<path d="M1231.7 226.87C1169.53 226.449 1139.57 221.579 1069.71 239.552C1042.36 246.939 1030.55 251.242 1004.93 257.967C832.714 300.61 826.031 310.454 752.215 322.109C710.669 328.157 636.464 332.478 596.713 322.008C538.801 303.779 495.033 258.834 421.763 219.807C315.637 165.747 291.965 200.002 156.101 205.445C79.4788 208.176 27.7624 206.149 -77.1621 216.032C-138.45 221.976 -163.039 226.838 -213.23 229.164C-265.727 231.097 -277.695 227.639 -323.384 226.867" stroke="#3DDEED" stroke-opacity="0.05" stroke-width="0.286519" stroke-linecap="round" stroke-linejoin="round"/>
<path d="M1231.7 226.87C1128.88 226.131 1136.68 212.064 842.929 301.77C769.223 323.964 719.645 332.909 635.587 330.911C549.508 327.219 506.907 261.837 408.804 212.945C307.973 165.418 290.906 204.119 143.142 207.001C71.6722 208.093 19.6236 205.425 -70.6812 213.957C-129.816 219.804 -151.848 224.873 -200.272 228.375C-258.466 232.022 -276.06 227.689 -323.381 226.87" stroke="#3DDEED" stroke-opacity="0.05" stroke-width="0.286519" stroke-linecap="round" stroke-linejoin="round"/>
<path d="M1231.7 226.87C1168.22 226.387 1138.03 219.976 1063.24 238.771C919.742 276.389 948.738 266.634 888.286 286.361C836.804 303.346 800.604 316.022 752.215 325.358C710.809 332.808 636.889 339.284 596.713 328.564C538.255 309.7 494.873 261.38 421.763 220.549C313.258 162.762 289.708 205.514 162.582 208.571C93.7545 209.701 43.4827 204.555 -38.2829 209.811C-96.6699 213.948 -122.917 219.365 -167.873 224.891C-245.83 233.949 -269.725 227.781 -323.381 226.87" stroke="#3DDEED" stroke-opacity="0.05" stroke-width="0.286519" stroke-linecap="round" stroke-linejoin="round"/>
<path d="M1231.7 226.87C1170.68 226.378 1140.23 219.884 1069.71 235.836C844.356 289.857 846.661 306.388 752.215 326.59C710.48 334.956 637.393 342.625 596.713 331.751C538.015 312.689 494.764 263.12 421.763 221.78C312.517 162.877 287.774 209.437 162.582 210.776C95.8248 210.882 45.8496 204.234 -31.802 208.072C-87.8577 211.286 -116.468 217.124 -161.392 223.413C-244.107 234.483 -269.775 227.764 -323.381 226.867" stroke="#3DDEED" stroke-opacity="0.05" stroke-width="0.286519" stroke-linecap="round" stroke-linejoin="round"/>
<path d="M1231.7 226.87C1170.1 226.345 1140.1 219.442 1069.71 234.527C852.765 284.013 862.318 300.55 758.702 326.299C716.578 336.188 644.832 345.299 603.188 336.672C514.627 312.959 441.288 197.506 324.574 193.515C266.332 193.814 257.262 213.233 162.585 212.984C28.6197 211.215 29.4294 192.98 -154.912 221.757C-243.191 235.085 -267.322 227.781 -323.378 226.87" stroke="#3DDEED" stroke-opacity="0.05" stroke-width="0.286519" stroke-linecap="round" stroke-linejoin="round"/>
<path d="M1231.7 226.87C1170.22 226.318 1140.22 218.943 1069.71 233.218C864.113 277.701 863.695 299.102 758.702 327.394C716.937 338.073 645.561 348.585 603.188 339.865C514.363 316.03 441.517 197.744 324.574 194.963C265.718 195.922 255.524 216.705 162.585 215.192C27.9909 211.458 28.1155 190.395 -154.912 221.009C-243.033 235.269 -267.23 227.77 -323.378 226.873" stroke="#3DDEED" stroke-opacity="0.05" stroke-width="0.286519" stroke-linecap="round" stroke-linejoin="round"/>
<path d="M1231.7 226.87C1168.52 226.286 1138.15 217.907 1063.24 233.233C845.278 280.398 872.795 296.944 752.218 330.282C709.958 341.367 638.763 352.615 596.716 341.314C508.858 312.244 435.911 193.337 318.096 196.586C261.494 200.391 248.577 221.053 156.107 217.121C32.7989 210.428 12.9589 189.526 -148.431 219.1C-241.719 235.744 -264.433 227.787 -323.378 226.87" stroke="#3DDEED" stroke-opacity="0.05" stroke-width="0.286519" stroke-linecap="round" stroke-linejoin="round"/>
<path d="M1231.7 226.87C1171.17 226.3 1140.56 218.121 1069.71 230.696C876.41 267.69 868.716 294.715 758.702 329.039C716.533 341.59 646.709 354.532 603.188 345.697C514.44 321.895 442.321 199.29 324.574 198.943C264.588 201.249 252.949 224.235 162.585 220.231C98.5239 216.48 51.7016 203.908 -18.8403 202.967C-135.929 202.917 -144.943 234.311 -303.939 227.312C-310.627 227.099 -311.019 227.054 -323.378 226.87" stroke="#3DDEED" stroke-opacity="0.05" stroke-width="0.286519" stroke-linecap="round" stroke-linejoin="round"/>
<path d="M1231.7 226.87C1130.77 225.906 1147.6 212.72 1004.93 243.045C961.643 251.966 944.407 254.952 894.77 274.418C845.462 294.202 700.825 367.941 603.185 348.246C513.711 324.302 442.798 200.771 324.571 201.673C264.247 204.629 251.623 228.458 162.582 223.178C98.0524 218.35 51.5563 204.068 -18.8433 202.107C-134.33 200.548 -151.732 235.21 -297.464 227.577C-306.694 227.179 -308.488 227.084 -323.381 226.873" stroke="#3DDEED" stroke-opacity="0.05" stroke-width="0.286519" stroke-linecap="round" stroke-linejoin="round"/>
<path d="M1231.7 226.87C1170.5 226.286 1140.55 217.628 1069.71 228.304C952.383 247.589 914.975 264.158 888.286 275.145C838.187 296.27 689.94 373.942 596.716 349.06C507.512 319.503 437.593 197.681 318.096 204.781C259.599 210.583 245.086 233.625 156.107 225.529C93.7278 218.902 48.4123 204.089 -18.8403 201.237C-128.407 198.311 -157.474 234.711 -297.461 227.544C-306.777 227.155 -308.628 227.063 -323.378 226.864" stroke="#3DDEED" stroke-opacity="0.05" stroke-width="0.286519" stroke-linecap="round" stroke-linejoin="round"/>
<path d="M1231.7 226.87C1170.16 226.283 1140.75 217.349 1069.71 227.108C955.714 244.321 918.401 260.235 881.814 276.074C826.39 300.517 680.946 379.531 590.229 349.46C501.576 314.446 432.079 195.085 311.612 208.289C255.865 216.501 238.412 238.552 149.623 227.571C86.8791 218.872 41.525 202.786 -25.3242 200.118C-133.511 197.69 -146.737 233.649 -303.945 227.259C-310.731 227.063 -310.965 227.028 -323.384 226.867" stroke="#3DDEED" stroke-opacity="0.05" stroke-width="0.286519" stroke-linecap="round" stroke-linejoin="round"/>
<path d="M1231.7 226.87C1169.02 226.262 1138.22 216.495 1063.24 226.802C954.379 243.081 924.265 255.415 881.814 274.279C826.236 299.473 681.299 382.202 590.229 352.013C501.238 316.787 432.642 196.61 311.612 211.153C257.096 219.759 238.866 241.437 156.104 231.212C57.5863 217.323 2.19799 182.053 -122.516 208.79C-247.402 236.495 -232.097 227.968 -323.378 226.87" stroke="#3DDEED" stroke-opacity="0.05" stroke-width="0.286519" stroke-linecap="round" stroke-linejoin="round"/>
<path d="M1231.7 226.87C1169.16 226.283 1138.1 216.486 1063.24 225.808C955.978 240.448 925.484 252.744 881.814 272.48C823.027 299.621 687.312 379.694 596.716 355.69C506.993 325.976 438.916 202.415 318.096 213.548C260.103 221.163 243.514 244.832 162.588 235.346C61.368 221.401 5.32421 179.741 -122.51 207.728C-248.07 236.261 -231.747 227.906 -323.378 226.87" stroke="#3DDEED" stroke-opacity="0.05" stroke-width="0.286519" stroke-linecap="round" stroke-linejoin="round"/>
<path d="M1231.7 226.87C1170.49 226.312 1140.67 217.142 1069.71 224.134C959.51 236.436 922.476 252.023 881.814 270.682C816.941 301.135 680.857 384.896 590.229 354.921C500.791 319.595 434.007 200.24 311.612 217.694C257.191 227.452 236.873 249.99 156.104 237.744C51.4821 219.771 1.83612 177.803 -128.994 208.17C-244.626 235.967 -240.319 227.749 -323.378 226.87" stroke="#3DDEED" stroke-opacity="0.05" stroke-width="0.286519" stroke-linecap="round" stroke-linejoin="round"/>
<path d="M1231.7 226.87C1182.82 226.44 1030.95 201.468 888.286 265.868C819.373 297.965 695.59 378.145 603.188 360.153C513.981 336.607 448.401 214.779 331.052 218.756C267.593 223.552 252.626 250.883 175.544 243.805C110.566 236.13 63.4769 211.209 -5.88156 199.818C-118.791 183.534 -156.279 232.349 -278.021 228.259C-299.608 227.327 -301.035 227.084 -323.378 226.867" stroke="#3DDEED" stroke-opacity="0.05" stroke-width="0.286519" stroke-linecap="round" stroke-linejoin="round"/>
<path d="M1231.7 226.87C1168.52 226.333 1137.81 216.554 1063.24 222.95C960.213 232.948 928.471 245.019 881.814 267.085C813.55 300.203 686.956 383.576 596.716 359.824C508.319 330.665 442.84 212.016 324.574 222.395C263.565 230.174 246.139 256.484 169.066 246.509C106.173 236.738 60.582 211.814 -5.88156 199.593C-118.444 181.278 -155.81 231.93 -278.021 228.185C-300.083 227.289 -300.987 227.069 -323.378 226.87" stroke="#3DDEED" stroke-opacity="0.05" stroke-width="0.286519" stroke-linecap="round" stroke-linejoin="round"/>
<path d="M1231.7 226.87C1175.24 226.407 1024.89 201.032 894.773 259.175C818.388 294.585 697.005 381.032 603.188 362.905C514.002 339.47 448.994 217.925 331.052 224.897C267.21 231.277 250.906 259.327 175.544 250.889C112.438 242 67.5731 215.699 0.59633 200.685C-114.508 177.274 -152.396 229.808 -271.543 228.289C-296.488 227.588 -293.614 227.114 -323.381 226.867" stroke="#3DDEED" stroke-opacity="0.05" stroke-width="0.286519" stroke-linecap="round" stroke-linejoin="round"/>
<path d="M1231.7 226.87C1167.98 226.384 1018.91 199.827 888.286 260.65C814.185 296.383 688.694 385.413 596.716 361.204C508.123 332.018 443.97 214.655 324.574 228.372C262.405 237.905 241.984 266.355 162.585 252.373C63.2485 232.212 3.11747 174.645 -116.035 200.991C-236.674 229.601 -193.859 227.841 -323.378 226.87" stroke="#3DDEED" stroke-opacity="0.05" stroke-width="0.286519" stroke-linecap="round" stroke-linejoin="round"/>
<path d="M1231.7 226.87C1165.18 226.392 1018.22 200.67 894.773 256.124C814.749 293.49 704.951 376.005 609.675 364.018C517.917 346.166 453.292 219.252 331.054 230.316C265.656 238.819 246.655 268.975 169.066 257.056C103.516 245.025 55.9282 213.462 -12.3596 198.293C-124.148 176.233 -147.903 232.521 -297.458 227.277C-306.922 227.022 -308.842 226.968 -323.375 226.867" stroke="#3DDEED" stroke-opacity="0.05" stroke-width="0.286519" stroke-linecap="round" stroke-linejoin="round"/>
<path d="M1231.7 226.87C1145.35 226.286 1126.83 211.96 998.443 225.906C857.662 242.066 792.42 337.007 661.504 361.614C617.152 368.885 596.304 365.525 557.834 342.572C482.591 294.653 426.737 222.831 331.055 233.011C255.079 244.048 232.943 287.337 117.231 246.043C33.7154 214.969 -18.8611 179.486 -109.551 197.622C-152.189 207.075 -178.664 218.314 -226.183 225.182C-264.798 229.987 -274.251 227.173 -323.378 226.87" stroke="#3DDEED" stroke-opacity="0.05" stroke-width="0.286519" stroke-linecap="round" stroke-linejoin="round"/>
<path d="M1231.7 226.87C1149.64 226.363 1122.81 212.803 1004.93 224.057C854.162 239.175 795.437 335.85 661.501 361.436C617.428 368.784 596.491 365.43 557.831 342.459C481.671 294.178 427.114 223.965 331.052 235.703C254.767 247.948 231.246 291.528 117.228 248.963C34.1396 216.587 -18.9115 178.607 -109.554 196.652C-152.026 206.08 -178.51 217.617 -226.186 224.828C-264.413 229.832 -274.008 227.146 -323.381 226.87" stroke="#3DDEED" stroke-opacity="0.05" stroke-width="0.286519" stroke-linecap="round" stroke-linejoin="round"/>
<path d="M1231.7 226.87C1147.56 226.39 1118.46 212.473 998.443 223.508C856.19 237.73 788.36 339.791 655.029 362.35C616.363 367.876 594.806 365.668 551.359 338.257C475.454 287.946 421.442 222.502 324.574 239.531C250.763 255.115 224.944 295.736 110.75 249.242C26.7837 213.788 -24.2415 176.717 -116.032 197.121C-158.913 207.523 -185.673 218.905 -232.664 225.366C-267.447 229.396 -275.331 227.102 -323.378 226.87" stroke="#3DDEED" stroke-opacity="0.05" stroke-width="0.286519" stroke-linecap="round" stroke-linejoin="round"/>
<path d="M1231.7 226.87C1146.68 226.422 1109.4 212.399 991.959 223.451C896.621 233.673 841.74 283.203 752.218 328.21C633.083 386.288 587.773 360.676 544.875 332.419C471.702 282.164 418.381 223.365 324.577 241.576C251.677 258.24 223.226 299.449 110.753 252.204C30.9836 217.373 -21.9696 177.767 -109.552 194.856C-153.787 204.605 -182.342 217.818 -232.661 225.045C-267.088 229.253 -275.177 227.081 -323.375 226.867" stroke="#3DDEED" stroke-opacity="0.05" stroke-width="0.286519" stroke-linecap="round" stroke-linejoin="round"/>
<path d="M1231.7 226.87C1131.44 226.384 1007.89 199.05 894.773 249.548C811.352 288.403 697.788 378.076 603.188 359.02C513.47 334.838 453.066 220.647 331.051 242.181C265.593 256.11 241.788 286.951 169.063 274.457C104.652 261.018 60.318 224.935 -5.8846 201.483C-118.479 164.679 -155.62 229.443 -284.505 227.419C-306.593 226.927 -304.508 226.971 -323.384 226.87" stroke="#3DDEED" stroke-opacity="0.05" stroke-width="0.286519" stroke-linecap="round" stroke-linejoin="round"/>
<path d="M1231.7 226.87C1117.58 226.384 1004.27 197.845 888.286 251.539C807.265 290.596 689.827 380.848 596.716 355.562C504.679 324.729 447.437 213.099 318.096 247.259C258.454 264.82 229.719 293 156.107 274.884C91.5062 256.733 46.6267 218.626 -18.8403 197.744C-124.779 167.291 -152.26 229.972 -297.461 227.108C-308.77 226.927 -307.421 226.95 -323.378 226.873" stroke="#3DDEED" stroke-opacity="0.05" stroke-width="0.286519" stroke-linecap="round" stroke-linejoin="round"/>
<path d="M1231.7 226.87C1109.74 226.404 1002.63 197.904 888.286 250.509C807.236 289.341 689.996 379.382 596.716 353.844C504.406 322.77 448.265 212.687 318.096 249.355C259.394 267.622 231.309 294.324 162.588 279.843C97.8388 263.749 53.6533 224.683 -12.3595 200.246C-120.045 163.655 -158.207 228.485 -284.499 227.298C-306.997 226.909 -304.861 226.944 -323.378 226.867" stroke="#3DDEED" stroke-opacity="0.05" stroke-width="0.286519" stroke-linecap="round" stroke-linejoin="round"/>
<path d="M1231.7 226.87C1141.74 226.568 1088.39 213.922 991.959 220.822C897.526 229.034 841.574 278.636 752.218 322.874C630.378 381.32 584.354 351.134 544.875 325.78C468.775 275.033 419.073 224.155 324.577 249.515C251.472 271.418 216.564 313.905 110.753 264.105C30.4053 224.555 -22.3314 175.734 -109.551 191.615C-151.865 200.593 -177.424 213.39 -226.183 222.68C-263.576 229.01 -276.805 227.036 -323.378 226.873" stroke="#3DDEED" stroke-opacity="0.05" stroke-width="0.286519" stroke-linecap="round" stroke-linejoin="round"/>
<path d="M1231.7 226.87C1084.11 226.241 997.829 197.352 881.814 251.877C799.889 291.67 683.53 378.863 590.229 347.018C499.047 310.576 445.806 211.93 318.093 252.777C257.689 273.753 226.685 302.316 156.104 284.782C91.0524 266.076 46.9648 224.075 -18.8433 198.913C-125.399 161.75 -135.605 227.449 -323.378 226.87" stroke="#3DDEED" stroke-opacity="0.05" stroke-width="0.286519" stroke-linecap="round" stroke-linejoin="round"/>
<path d="M1231.7 226.87C1131.31 226.493 1043.69 211.728 966.045 223.386C877.095 239.196 813.814 295.208 726.304 330.517C614.165 373.488 581.147 345.291 506.005 293.487C430.824 242.389 385.814 225.867 298.659 261.627C220.236 295.074 186.144 313.808 84.8355 256.121C-7.09469 202.564 -44.3989 170.075 -141.947 198.447C-247.942 230.429 -240.72 227.096 -323.378 226.87" stroke="#3DDEED" stroke-opacity="0.05" stroke-width="0.286519" stroke-linecap="round" stroke-linejoin="round"/>
<path d="M1231.7 226.87C1135.48 226.559 1098.61 218.632 1024.36 219.097C849.49 221.769 785.23 340.391 635.586 348.223C517.757 350.368 473.518 191.713 305.134 260.49C247.382 285.177 212.97 309.923 143.145 287.21C41.0356 250.049 -10.3277 163.771 -128.994 194.049C-227.598 221.193 -208.105 227.131 -323.378 226.87" stroke="#3DDEED" stroke-opacity="0.05" stroke-width="0.286519" stroke-linecap="round" stroke-linejoin="round"/>
<path d="M1231.7 226.87C1124.48 226.579 1092.34 218.477 1017.89 219.145C851.169 222.226 778.026 343.433 629.115 345.51C611.929 344.991 600.78 343.21 577.274 332.493C478.02 282.666 437.091 205.683 305.134 262.021C246.106 288.266 211.57 312.671 143.145 290.412C80.2293 267.405 37.6099 223.899 -25.3212 197.987C-110.346 166.201 -152.043 210.808 -245.626 224.635C-271.665 227.844 -277.475 226.995 -323.381 226.87" stroke="#3DDEED" stroke-opacity="0.05" stroke-width="0.286519" stroke-linecap="round" stroke-linejoin="round"/>
<path d="M1231.7 226.87C1101.45 226.582 1036.81 212.604 966.045 222.605C879.421 237.187 818.883 287.99 732.787 321.942C615.269 365.876 578.798 333.763 512.477 289.75C435.929 239.436 391.717 224.995 305.137 263.547C259.148 284.785 233.821 301.758 188.505 302.085C147.503 300.334 117.172 284.082 84.8326 264.286C-6.53706 206.819 -43.6811 167.561 -141.95 196.287C-248.141 228.758 -238.409 227.054 -323.378 226.87" stroke="#3DDEED" stroke-opacity="0.05" stroke-width="0.286519" stroke-linecap="round" stroke-linejoin="round"/>
<path d="M1231.7 226.87C1091.65 226.487 1034.12 213.156 966.045 222.608C879.465 236.952 818.827 286.934 732.787 319.639C615.657 361.798 579.623 330.35 512.477 286.304C434.591 235.901 390.821 224.71 305.137 264.598C258.641 286.957 233.068 303.99 188.505 304.886C147.405 303.625 117.178 287.287 84.8326 267.091C-7.45655 207.745 -43.9273 166.967 -141.95 195.622C-243.419 226.737 -232.937 227.137 -323.378 226.87" stroke="#3DDEED" stroke-opacity="0.05" stroke-width="0.286519" stroke-linecap="round" stroke-linejoin="round"/>
<path d="M1231.7 226.87C1075.21 226.663 1028.47 212.441 959.57 223.674C873.773 239.849 811.868 289.991 726.3 319.571C614.412 356.055 583.351 328.552 512.474 282.841C432.74 232.061 389.367 224.722 305.134 265.639C259.261 288.566 235.77 304.014 194.983 307.471C71.0284 311.599 11.2118 156.428 -128.991 191.295C-173.912 203.546 -202.864 218.008 -252.101 224.926C-273.682 227.41 -276.105 226.971 -323.375 226.867" stroke="#3DDEED" stroke-opacity="0.05" stroke-width="0.286519" stroke-linecap="round" stroke-linejoin="round"/>
<path d="M1231.7 226.87C1069.94 226.538 1030.59 213.963 966.045 222.629C876.879 236.905 815.345 287.637 726.304 317.167C610.852 353.185 582.5 323.26 506.005 275.32C425.153 225.95 382.106 226.752 298.659 270.041C210.517 316.532 173.195 330.083 84.8355 272.706C-0.948998 215.153 -41.8896 166.961 -135.469 192.402C-236.736 222.015 -217.97 227.025 -323.378 226.87" stroke="#3DDEED" stroke-opacity="0.05" stroke-width="0.286519" stroke-linecap="round" stroke-linejoin="round"/>
<path d="M1231.7 226.87C996.275 226.428 988.16 198.45 855.9 258.828C776.813 295.478 714.472 332.196 622.631 328.546C547.414 320.105 494.055 237.513 402.329 236.542C294.545 240.638 243.983 347.813 130.19 301.182C64.4942 271.323 20.4393 217.566 -44.7578 192.289C-83.548 179.144 -108.009 183.124 -148.431 195.634C-251.914 228.977 -246.183 226.927 -323.378 226.87" stroke="#3DDEED" stroke-opacity="0.05" stroke-width="0.286519" stroke-linecap="round" stroke-linejoin="round"/>
<path d="M1231.7 226.87C1164.18 226.87 1156.67 228.482 1095.64 224.431C1041.18 220.605 1006.15 217.459 966.042 222.65C879.771 236.005 818.797 282.604 732.784 310.397C611.879 347.089 577.674 312.751 512.474 272.451C429.795 222.321 386.787 224.122 305.134 268.759C211.718 320.782 174.289 338.637 84.8296 278.315C-5.407 215.272 -42.7142 163.943 -141.953 192.966C-244.522 224.796 -228.541 226.87 -323.378 226.87" stroke="#3DDEED" stroke-opacity="0.05" stroke-width="0.286519" stroke-linecap="round" stroke-linejoin="round"/>
</g>
<defs>
<clipPath id="clip0_5_4439">
<rect width="1555.23" height="391.385" fill="white" transform="translate(-323.452 0.527161)"/>
</clipPath>
</defs>
</svg>
